<svg width="20" height="20" viewBox="0 0 20 20" fill="none" xmlns="http://www.w3.org/2000/svg">
<path d="M0.993904 7.51762L0.99395 7.5175C1.81142 5.35816 3.68034 3.56309 6.11285 2.58694C7.42896 2.06439 8.84413 1.8183 10.2513 1.82458C13.3487 1.83841 16.3969 3.07508 18.2561 5.26312C18.2563 5.26335 18.2565 5.26359 18.2567 5.26382L18.3959 5.43425L18.3959 5.43429L18.3981 5.43687C18.7372 5.82216 18.8575 5.97164 19.1499 6.55645C19.8477 8.02904 19.3468 9.77347 17.9352 10.6386C17.5781 10.856 17.113 11.1091 16.5313 11.1091H15.5623C15.0893 11.1091 14.6645 11.3798 14.4769 11.805C14.3881 11.994 14.1619 12.0795 13.9769 11.9932C13.7874 11.9047 13.7015 11.6784 13.7877 11.4932C14.1165 10.806 14.803 10.3591 15.5623 10.3591H16.5313C16.8531 10.3591 17.1676 10.24 17.5496 10.0012L17.5499 10.001C18.6053 9.33532 18.9958 8.00291 18.4594 6.88142L18.4592 6.88104C18.3418 6.63845 18.2652 6.49254 18.1751 6.35955C18.0856 6.22723 17.9841 6.10979 17.8214 5.92383L17.6817 5.75291L17.6807 5.75171C15.1674 2.77993 10.3107 1.72774 6.38717 3.28766C4.14764 4.1709 2.43863 5.81348 1.69358 7.77907C1.05892 9.44511 1.17042 11.2533 1.96253 12.8692L1.96252 12.8692L1.96324 12.8706C3.40386 15.6885 6.43985 17.3748 10.078 17.3748C11.8253 17.3748 13.3031 16.156 13.5923 14.4534C13.6306 14.2377 13.8325 14.102 14.0296 14.139L14.0305 14.1391C14.2464 14.1772 14.3823 14.3793 14.3453 14.5764L14.3449 14.5785C14.0089 16.6256 12.2209 18.1248 10.0936 18.1248C6.15423 18.1248 2.87762 16.2805 1.31799 13.2077C0.407646 11.4023 0.284816 9.38283 0.993904 7.51762ZM10.7348 3.97668L10.7349 3.97668C11.0202 3.79756 11.353 3.70882 11.6896 3.72209C11.9613 3.73287 12.2262 3.80975 12.4615 3.94606C12.6968 4.08237 12.8952 4.274 13.0397 4.50434L13.1156 4.4567L13.0397 4.50434C13.2753 4.87993 13.352 5.33371 13.2531 5.76589C13.1541 6.19806 12.8876 6.57324 12.512 6.80889C12.326 6.92559 12.1189 7.00451 11.9024 7.04115C11.6859 7.07779 11.4643 7.07143 11.2503 7.02243C11.0363 6.97343 10.834 6.88275 10.655 6.75558C10.476 6.6284 10.3239 6.46722 10.2072 6.28123C9.97159 5.90564 9.89484 5.45186 9.99379 5.01969C10.0927 4.58751 10.3593 4.21234 10.7348 3.97668ZM5.8142 6.96943L5.8142 6.96943C5.57868 6.59374 5.50206 6.13988 5.60118 5.70769C5.70029 5.2755 5.96704 4.90039 6.34273 4.66488C6.62813 4.48596 6.96091 4.39743 7.29749 4.41087C7.56914 4.42173 7.83406 4.49867 8.06926 4.63503C8.30447 4.77139 8.50287 4.96305 8.64727 5.19341L8.64728 5.19341C8.88282 5.56907 8.95949 6.0229 8.86042 6.45509C8.76136 6.88727 8.49468 7.2624 8.11904 7.49796C7.933 7.61462 7.72581 7.69349 7.50929 7.73007C7.29277 7.76664 7.07117 7.7602 6.85714 7.71112C6.64311 7.66204 6.44084 7.57128 6.26189 7.44402C6.08294 7.31676 5.93082 7.1555 5.8142 6.96943ZM14.6414 6.00825L14.6414 6.00825L15.5964 5.75395C15.5964 5.75395 15.5964 5.75395 15.5964 5.75395C15.8681 5.76481 16.133 5.84175 16.3682 5.97811C16.6034 6.11447 16.8018 6.30613 16.9462 6.53649C17.1817 6.91218 17.2584 7.36603 17.1592 7.79822C17.0601 8.23041 16.7934 8.60552 16.4177 8.84103L16.4177 8.84104C16.042 9.07658 15.5882 9.15325 15.156 9.05419C14.7238 8.95512 14.3487 8.68844 14.1131 8.3128C13.8776 7.93715 13.8009 7.48331 13.9 7.05113C13.9991 6.61895 14.2657 6.24382 14.6414 6.00825ZM4.34825 7.86424L4.34827 7.86424C4.61993 7.8751 4.88484 7.95204 5.12004 8.0884C5.35525 8.22476 5.55365 8.41642 5.69806 8.64678C5.93357 9.02247 6.01019 9.47633 5.91108 9.90851C5.81196 10.3407 5.54521 10.7158 5.16953 10.9513C4.79384 11.1868 4.33998 11.2635 3.90779 11.1643C3.4756 11.0652 3.10049 10.7985 2.86498 10.4228L2.86497 10.4228C2.62943 10.0471 2.55276 9.5933 2.65183 9.16112C2.75089 8.72893 3.01757 8.3538 3.39321 8.11824C3.67869 7.93927 4.01159 7.85073 4.34825 7.86424ZM9.24139 15.862L9.24086 15.8619C8.62303 15.7112 8.11284 15.3503 7.78256 14.8249C7.10696 13.7438 7.43725 12.3022 8.51789 11.6265C8.9293 11.373 9.38918 11.2609 9.83907 11.277C10.5895 11.3039 11.3108 11.6869 11.7328 12.3622C12.4086 13.4434 12.0779 14.8853 10.997 15.5609L10.9961 15.5615C10.6207 15.8017 10.2009 15.9217 9.76552 15.9217C9.58382 15.9217 9.41983 15.9066 9.24139 15.862ZM11.0946 12.762L11.0944 12.7617C10.7953 12.2964 10.2807 12.0311 9.74996 12.0311C9.469 12.0311 9.18571 12.0974 8.91902 12.2641L8.91838 12.2645C8.18869 12.7289 7.95483 13.7078 8.42056 14.4403C8.63719 14.7899 8.98645 15.0388 9.40002 15.138C9.8166 15.238 10.2482 15.1543 10.5961 14.9389L10.5961 14.9389L10.5971 14.9383C11.327 14.4738 11.5608 13.4945 11.0946 12.762Z" fill="#112EC0" stroke="#112EC0" stroke-width="0.1875"/>
</svg>
