<svg width="57" height="56" viewBox="0 0 57 56" fill="none" xmlns="http://www.w3.org/2000/svg">
<path d="M41.0767 36.5633L31.65 28H25.3267L15.9 36.5633C13.2634 38.9433 12.4 42.6067 13.6834 45.92C14.9667 49.21 18.0934 51.3333 21.6167 51.3333H35.36C38.9067 51.3333 42.01 49.21 43.2934 45.92C44.5767 42.6067 43.7134 38.9433 41.0767 36.5633ZM32.7467 42.3267H24.2534C23.3667 42.3267 22.6667 41.6033 22.6667 40.74C22.6667 39.8767 23.39 39.1533 24.2534 39.1533H32.7467C33.6334 39.1533 34.3334 39.8767 34.3334 40.74C34.3334 41.6033 33.61 42.3267 32.7467 42.3267Z" fill="#6D82EE"/>
<path d="M43.3167 10.0801C42.0334 6.79008 38.9067 4.66675 35.3834 4.66675H21.6167C18.0934 4.66675 14.9667 6.79008 13.6834 10.0801C12.4234 13.3934 13.2867 17.0567 15.9234 19.4367L25.35 28.0001H31.6734L41.1 19.4367C43.7134 17.0567 44.5767 13.3934 43.3167 10.0801ZM32.7467 16.8701H24.2534C23.3667 16.8701 22.6667 16.1467 22.6667 15.2834C22.6667 14.4201 23.39 13.6967 24.2534 13.6967H32.7467C33.6334 13.6967 34.3334 14.4201 34.3334 15.2834C34.3334 16.1467 33.61 16.8701 32.7467 16.8701Z" fill="#6D82EE"/>
</svg>
