<svg width="39" height="40" viewBox="0 0 39 40" fill="none" xmlns="http://www.w3.org/2000/svg">
<rect x="2" y="2.375" width="35.25" height="35.25" rx="17.625" fill="white"/>
<rect x="2" y="2.375" width="35.25" height="35.25" rx="17.625" stroke="#FF8800" stroke-width="3"/>
<path d="M21.7628 12.125H18.2378C17.4578 12.125 16.8203 12.755 16.8203 13.535V14.24C16.8203 15.02 17.4503 15.65 18.2303 15.65H21.7628C22.5428 15.65 23.1728 15.02 23.1728 14.24V13.535C23.1803 12.755 22.5428 12.125 21.7628 12.125Z" fill="#FF8800"/>
<path d="M23.9303 14.2401C23.9303 15.4326 22.9553 16.4076 21.7628 16.4076H18.2378C17.0453 16.4076 16.0703 15.4326 16.0703 14.2401C16.0703 13.8201 15.6203 13.5576 15.2453 13.7526C14.1878 14.3151 13.4678 15.4326 13.4678 16.7151V23.7726C13.4678 25.6176 14.9753 27.1251 16.8203 27.1251H23.1803C25.0253 27.1251 26.5328 25.6176 26.5328 23.7726V16.7151C26.5328 15.4326 25.8128 14.3151 24.7553 13.7526C24.3803 13.5576 23.9303 13.8201 23.9303 14.2401ZM22.5053 20.1726L19.5053 23.1726C19.3928 23.2851 19.2503 23.3376 19.1078 23.3376C18.9653 23.3376 18.8228 23.2851 18.7103 23.1726L17.5853 22.0476C17.3678 21.8301 17.3678 21.4701 17.5853 21.2526C17.8028 21.0351 18.1628 21.0351 18.3803 21.2526L19.1078 21.9801L21.7103 19.3776C21.9278 19.1601 22.2878 19.1601 22.5053 19.3776C22.7228 19.5951 22.7228 19.9551 22.5053 20.1726Z" fill="#FF8800"/>
</svg>
