<svg width="20" height="20" viewBox="0 0 20 20" fill="none" xmlns="http://www.w3.org/2000/svg">
<path d="M7.97502 10.3833L5.43335 12.925" stroke="#112EC0" stroke-width="1.5" stroke-miterlimit="10" stroke-linecap="round" stroke-linejoin="round"/>
<path d="M5.45825 10.4082L7.99992 12.9499" stroke="#112EC0" stroke-width="1.5" stroke-miterlimit="10" stroke-linecap="round" stroke-linejoin="round"/>
<path d="M11.2749 11.6665H11.2832" stroke="#112EC0" stroke-width="2" stroke-miterlimit="10" stroke-linecap="round" stroke-linejoin="round"/>
<path d="M14.5583 11.6665H14.5667" stroke="#112EC0" stroke-width="2" stroke-miterlimit="10" stroke-linecap="round" stroke-linejoin="round"/>
<path d="M12.9167 13.3165V13.2998" stroke="#112EC0" stroke-width="2" stroke-miterlimit="10" stroke-linecap="round" stroke-linejoin="round"/>
<path d="M12.9167 10.0333V10.0166" stroke="#112EC0" stroke-width="2" stroke-miterlimit="10" stroke-linecap="round" stroke-linejoin="round"/>
<path d="M7.50008 18.3333H12.5001C16.6667 18.3333 18.3334 16.6667 18.3334 12.5V10.8333C18.3334 6.66667 16.6667 5 12.5001 5H7.50008C3.33341 5 1.66675 6.66667 1.66675 10.8333V12.5C1.66675 16.6667 3.33341 18.3333 7.50008 18.3333Z" stroke="#112EC0" stroke-width="1.5" stroke-linecap="round" stroke-linejoin="round"/>
<path d="M10.8416 1.6665L10.8332 2.50817C10.8249 2.9665 10.4582 3.33317 9.9999 3.33317H9.9749C9.51657 3.33317 9.1499 3.70817 9.1499 4.1665C9.1499 4.62484 9.5249 4.99984 9.98324 4.99984H10.8166" stroke="#112EC0" stroke-width="1.5" stroke-linecap="round" stroke-linejoin="round"/>
</svg>
