<svg width="20" height="21" viewBox="0 0 20 21" fill="none" xmlns="http://www.w3.org/2000/svg">
<path d="M16.1835 10.2917H13.3335C12.9918 10.2917 12.7085 10.0084 12.7085 9.66675V3.84175C12.7085 3.22508 12.9502 2.65008 13.3835 2.21675C13.8168 1.78341 14.3918 1.54175 15.0085 1.54175H15.0168C16.0585 1.55008 17.0418 1.95841 17.7918 2.70008C18.5418 3.45841 18.9502 4.45841 18.9502 5.50008V7.51675C18.9585 9.17508 17.8418 10.2917 16.1835 10.2917ZM13.9585 9.04175H16.1835C17.1501 9.04175 17.7085 8.48341 17.7085 7.51675V5.50008C17.7085 4.78341 17.4252 4.10008 16.9168 3.58341C16.4085 3.08341 15.7335 2.80008 15.0168 2.79175C15.0168 2.79175 15.0168 2.79175 15.0085 2.79175C14.7335 2.79175 14.4668 2.90008 14.2668 3.10008C14.0668 3.30008 13.9585 3.55841 13.9585 3.84175V9.04175Z" fill="#717171"/>
<path d="M7.4998 19.9417C7.10813 19.9417 6.74147 19.7917 6.46647 19.5084L5.08311 18.1167C5.00811 18.0417 4.89148 18.0334 4.80815 18.1001L3.38313 19.1667C2.94146 19.5001 2.35811 19.5584 1.85811 19.3084C1.35811 19.0584 1.0498 18.5584 1.0498 18.0001V5.50008C1.0498 2.98341 2.49147 1.54175 5.00814 1.54175H15.0081C15.3498 1.54175 15.6331 1.82508 15.6331 2.16675C15.6331 2.50841 15.3498 2.79175 15.0081 2.79175C14.4331 2.79175 13.9665 3.25841 13.9665 3.83341V18.0001C13.9665 18.5584 13.6581 19.0584 13.1581 19.3084C12.6664 19.5584 12.0748 19.5001 11.6331 19.1667L10.2081 18.1001C10.1248 18.0334 10.0081 18.0501 9.94146 18.1167L8.54146 19.5167C8.25813 19.7917 7.89146 19.9417 7.4998 19.9417ZM4.92477 16.8084C5.30811 16.8084 5.68311 16.9501 5.96644 17.2417L7.3498 18.6334C7.3998 18.6834 7.46646 18.6917 7.4998 18.6917C7.53313 18.6917 7.59979 18.6834 7.64979 18.6334L9.04978 17.2334C9.56645 16.7167 10.3832 16.6667 10.9581 17.1084L12.3748 18.1667C12.4664 18.2334 12.5498 18.2084 12.5915 18.1834C12.6331 18.1584 12.7081 18.1084 12.7081 18.0001V3.83341C12.7081 3.45841 12.7998 3.10008 12.9581 2.79175H4.9998C3.1498 2.79175 2.29146 3.65008 2.29146 5.50008V18.0001C2.29146 18.1167 2.36648 18.1667 2.40814 18.1917C2.45814 18.2167 2.54148 18.2334 2.62482 18.1667L4.04978 17.1001C4.30812 16.9084 4.61644 16.8084 4.92477 16.8084Z" fill="#717171"/>
<path d="M10 8.625H5C4.65833 8.625 4.375 8.34167 4.375 8C4.375 7.65833 4.65833 7.375 5 7.375H10C10.3417 7.375 10.625 7.65833 10.625 8C10.625 8.34167 10.3417 8.625 10 8.625Z" fill="#717171"/>
<path d="M9.375 11.9583H5.625C5.28333 11.9583 5 11.6749 5 11.3333C5 10.9916 5.28333 10.7083 5.625 10.7083H9.375C9.71667 10.7083 10 10.9916 10 11.3333C10 11.6749 9.71667 11.9583 9.375 11.9583Z" fill="#717171"/>
</svg>
