<svg width="39" height="40" viewBox="0 0 39 40" fill="none" xmlns="http://www.w3.org/2000/svg">
<rect x="1.625" y="2" width="36" height="36" rx="18" fill="white"/>
<rect x="1.625" y="2" width="36" height="36" rx="18" stroke="#FF8800" stroke-width="2.25"/>
<path d="M23.1425 12.125H16.8575C14.1275 12.125 12.5 13.7525 12.5 16.4825V22.7675C12.5 25.4975 14.1275 27.125 16.8575 27.125H23.1425C25.8725 27.125 27.5 25.4975 27.5 22.7675V16.4825C27.5 13.7525 25.8725 12.125 23.1425 12.125ZM18.4775 21.8L16.79 23.4875C16.6775 23.6 16.535 23.6525 16.3925 23.6525C16.25 23.6525 16.1 23.6 15.995 23.4875L15.4325 22.925C15.2075 22.7075 15.2075 22.3475 15.4325 22.13C15.65 21.9125 16.0025 21.9125 16.2275 22.13L16.3925 22.295L17.6825 21.005C17.9 20.7875 18.2525 20.7875 18.4775 21.005C18.695 21.2225 18.695 21.5825 18.4775 21.8ZM18.4775 16.55L16.79 18.2375C16.6775 18.35 16.535 18.4025 16.3925 18.4025C16.25 18.4025 16.1 18.35 15.995 18.2375L15.4325 17.675C15.2075 17.4575 15.2075 17.0975 15.4325 16.88C15.65 16.6625 16.0025 16.6625 16.2275 16.88L16.3925 17.045L17.6825 15.755C17.9 15.5375 18.2525 15.5375 18.4775 15.755C18.695 15.9725 18.695 16.3325 18.4775 16.55ZM24.17 23.09H20.2325C19.925 23.09 19.67 22.835 19.67 22.5275C19.67 22.22 19.925 21.965 20.2325 21.965H24.17C24.485 21.965 24.7325 22.22 24.7325 22.5275C24.7325 22.835 24.485 23.09 24.17 23.09ZM24.17 17.84H20.2325C19.925 17.84 19.67 17.585 19.67 17.2775C19.67 16.97 19.925 16.715 20.2325 16.715H24.17C24.485 16.715 24.7325 16.97 24.7325 17.2775C24.7325 17.585 24.485 17.84 24.17 17.84Z" fill="#FF8800"/>
</svg>
