<svg width="39" height="40" viewBox="0 0 39 40" fill="none" xmlns="http://www.w3.org/2000/svg">
<rect x="2.25" y="2.375" width="35.25" height="35.25" rx="17.625" fill="white"/>
<rect x="2.25" y="2.375" width="35.25" height="35.25" rx="17.625" stroke="#FF8800" stroke-width="3"/>
<path d="M21.3225 15.4475V16.4525C19.3575 16.61 18.24 17.87 18.24 19.9475V23.375H15.3225C13.605 23.375 12.75 22.52 12.75 20.8025V15.4475C12.75 13.73 13.605 12.875 15.3225 12.875H18.75C20.4675 12.875 21.3225 13.73 21.3225 15.4475Z" fill="#FF8800"/>
<path d="M25.1777 17.375H21.7502C20.0327 17.375 19.1777 18.23 19.1777 19.9475V25.3025C19.1777 27.02 20.0327 27.875 21.7502 27.875H25.1777C26.8952 27.875 27.7502 27.02 27.7502 25.3025V19.9475C27.7502 18.23 26.8952 17.375 25.1777 17.375ZM24.8477 23.1875H24.1877V23.8475C24.1877 24.155 23.9327 24.41 23.6252 24.41C23.3177 24.41 23.0627 24.155 23.0627 23.8475V23.1875H22.4027C22.0952 23.1875 21.8402 22.9325 21.8402 22.625C21.8402 22.3175 22.0952 22.0625 22.4027 22.0625H23.0627V21.4025C23.0627 21.095 23.3177 20.84 23.6252 20.84C23.9327 20.84 24.1877 21.095 24.1877 21.4025V22.0625H24.8477C25.1552 22.0625 25.4102 22.3175 25.4102 22.625C25.4102 22.9325 25.1552 23.1875 24.8477 23.1875Z" fill="#FF8800"/>
</svg>
