<svg width="57" height="56" viewBox="0 0 57 56" fill="none" xmlns="http://www.w3.org/2000/svg">
<g clip-path="url(#clip0_314_13951)">
<path d="M43.8933 12.5611C43.7809 12.4485 43.6473 12.3593 43.5004 12.2985C43.3534 12.2377 43.1958 12.2065 43.0368 12.2068C42.8777 12.2065 42.7202 12.2377 42.5732 12.2984C42.4263 12.3592 42.2927 12.4484 42.1803 12.5609C41.7081 13.0332 41.7081 13.8017 42.1803 14.2739C42.6527 14.7464 43.4211 14.7461 43.8932 14.2739C44.006 14.1617 44.0955 14.0281 44.1564 13.8811C44.2173 13.7341 44.2484 13.5765 44.248 13.4174C44.2484 13.2583 44.2173 13.1006 44.1564 12.9537C44.0955 12.8067 44.0061 12.6732 43.8933 12.5611ZM23.8416 30.3371C23.5136 30.0092 23.204 29.8505 22.9122 29.8601C22.6205 29.8701 22.3303 30.0191 22.0419 30.3076L21.0682 31.2812L22.8974 33.1104L23.8711 32.1368C24.1595 31.8484 24.3086 31.5583 24.3185 31.2665C24.3284 30.9749 24.1695 30.6651 23.8416 30.3371Z" fill="#6D82EE"/>
<path d="M56.4186 21.6172L53.7505 6.8598C53.3742 4.77763 51.7224 3.12574 49.6402 2.74927L34.8827 0.0812956C34.0724 -0.0651449 33.2387 -0.013196 32.4529 0.232701C31.6671 0.478599 30.9524 0.911131 30.3701 1.49332L1.99351 29.8701C1.03047 30.8331 0.5 32.1136 0.5 33.4755C0.5 34.8374 1.03036 36.118 1.99351 37.0809L19.4191 54.5064C20.3821 55.4696 21.6626 55.9999 23.0245 55.9999C24.3865 55.9999 25.667 55.4696 26.63 54.5064L55.0066 26.1298C55.5887 25.5474 56.0212 24.8328 56.2671 24.047C56.5129 23.2612 56.5649 22.4275 56.4186 21.6172ZM21.5058 42.3004C21.4368 42.5333 21.2976 42.7544 21.0879 42.9641C20.8779 43.1741 20.6569 43.3133 20.4241 43.382C20.1914 43.451 19.9999 43.4099 19.8488 43.259L13.6042 37.0143C13.4535 36.8636 13.4025 36.6818 13.4517 36.4688C13.5007 36.2557 13.6172 36.0574 13.8008 35.8736L17.2133 32.4612C17.3641 32.3104 17.5445 32.2612 17.7541 32.3135C17.9641 32.366 18.1572 32.4807 18.3343 32.6579C18.5244 32.8481 18.6442 33.0497 18.6934 33.2627C18.7424 33.4759 18.6948 33.6544 18.5507 33.7986L16.0035 36.3457L17.6656 38.0078L19.1506 36.5228C19.2946 36.3787 19.4668 36.3245 19.6668 36.3605C19.8668 36.3966 20.0488 36.4968 20.2125 36.6605C20.3633 36.8113 20.4584 36.9851 20.4978 37.1817C20.5369 37.3783 20.4814 37.5522 20.3306 37.7029L18.8456 39.1879L21.3828 41.7251C21.5339 41.876 21.5747 42.0678 21.5058 42.3004ZM29.8648 33.7938C29.8288 34.1708 29.696 34.4741 29.4665 34.7036C29.2369 34.9331 28.9781 35.0018 28.6896 34.9101L24.7265 33.6415L24.0775 34.2906L26.4474 36.6605C26.5984 36.8114 26.6392 37.0033 26.5704 37.2359C26.5013 37.4689 26.3621 37.69 26.1524 37.8997C25.9425 38.1096 25.7214 38.2488 25.4887 38.3175C25.2559 38.3866 25.0644 38.3455 24.9134 38.1946L18.6589 31.9401C18.5344 31.8155 18.4706 31.6633 18.4672 31.4827C18.464 31.3025 18.5313 31.1434 18.669 31.0058L20.7047 28.9701C22.3174 27.3574 23.8255 27.2524 25.2284 28.6553C26.2511 29.6782 26.5198 30.7404 26.0347 31.8415L29.4078 32.8153C29.4866 32.8284 29.5619 32.8711 29.6339 32.9432C29.8239 33.1335 29.9009 33.4169 29.8648 33.7938ZM35.2982 28.7539L31.7974 32.2548C31.6137 32.4384 31.4155 32.5547 31.2023 32.6039C30.9892 32.6531 30.8075 32.6022 30.6566 32.4513L24.412 26.2067C24.2612 26.0559 24.2103 25.8742 24.2595 25.6611C24.3086 25.4479 24.425 25.2497 24.6086 25.066L28.1096 21.5651C28.2603 21.4144 28.4408 21.3652 28.6503 21.4175C28.8603 21.47 29.0535 21.5847 29.2306 21.7619C29.4207 21.9521 29.5404 22.1537 29.5896 22.3666C29.6386 22.5799 29.5911 22.7584 29.4469 22.9026L26.8113 25.5382L28.4734 27.2002L29.9486 25.725C30.0927 25.5809 30.2649 25.5267 30.4649 25.5627C30.6648 25.5988 30.8469 25.6988 31.0106 25.8626C31.1615 26.0134 31.2565 26.1872 31.2958 26.3839C31.3349 26.5805 31.2794 26.7544 31.1287 26.9051L29.6534 28.3804L31.3251 30.0521L33.9607 27.4165C34.1047 27.2724 34.2836 27.2248 34.4966 27.2738C34.7098 27.3232 34.9112 27.4427 35.1014 27.6329C35.2782 27.8098 35.3932 28.0033 35.4457 28.213C35.4983 28.4229 35.449 28.6031 35.2982 28.7539ZM40.5987 23.4534L37.0976 26.9545C36.9139 27.1381 36.7156 27.2545 36.5025 27.3036C36.2894 27.3528 36.1077 27.3019 35.9568 27.151L29.7121 20.9064C29.5614 20.7556 29.5105 20.5739 29.5597 20.3608C29.6088 20.1476 29.7252 19.9494 29.9088 19.7657L33.4097 16.2648C33.5604 16.1141 33.7409 16.0649 33.9504 16.1172C34.1603 16.1698 34.3536 16.2844 34.5307 16.4616C34.7207 16.6518 34.8405 16.8534 34.8897 17.0663C34.9387 17.2796 34.8912 17.4581 34.747 17.6023L32.1114 20.2379L33.7734 21.8999L35.2487 20.4247C35.3927 20.2806 35.5649 20.2264 35.7649 20.2624C35.9649 20.2985 36.1469 20.3986 36.3106 20.5624C36.4614 20.7132 36.5565 20.887 36.5959 21.0836C36.635 21.2802 36.5795 21.4541 36.4287 21.6048L34.9535 23.0801L36.6252 24.7518L39.2608 22.1162C39.4048 21.9721 39.5837 21.9246 39.7967 21.9736C40.01 22.0229 40.2114 22.1424 40.4016 22.3326C40.5784 22.5095 40.6933 22.7031 40.7459 22.9127C40.7988 23.1224 40.7495 23.3027 40.5987 23.4534ZM46.2155 16.5965C45.3392 17.4728 44.188 17.9109 43.0369 17.9109C41.8857 17.9109 40.7346 17.4728 39.8583 16.5963C38.1055 14.8436 38.1055 11.9918 39.8583 10.239C41.6109 8.48631 44.4629 8.4862 46.2155 10.239C47.0647 11.0881 47.5321 12.217 47.5321 13.4177C47.5321 14.6184 47.0646 15.7473 46.2155 16.5965Z" fill="#6D82EE"/>
</g>
<defs>
<clipPath id="clip0_314_13951">
<rect width="56" height="56" fill="white" transform="translate(0.5)"/>
</clipPath>
</defs>
</svg>
