<svg width="20" height="21" viewBox="0 0 20 21" fill="none" xmlns="http://www.w3.org/2000/svg">
<path d="M12.4998 19.4584H7.49984C2.97484 19.4584 1.0415 17.5251 1.0415 13.0001V8.00008C1.0415 3.47508 2.97484 1.54175 7.49984 1.54175H9.1665C9.50817 1.54175 9.7915 1.82508 9.7915 2.16675C9.7915 2.50841 9.50817 2.79175 9.1665 2.79175H7.49984C3.65817 2.79175 2.2915 4.15841 2.2915 8.00008V13.0001C2.2915 16.8417 3.65817 18.2084 7.49984 18.2084H12.4998C16.3415 18.2084 17.7082 16.8417 17.7082 13.0001V11.3334C17.7082 10.9917 17.9915 10.7084 18.3332 10.7084C18.6748 10.7084 18.9582 10.9917 18.9582 11.3334V13.0001C18.9582 17.5251 17.0248 19.4584 12.4998 19.4584Z" fill="#353535"/>
<path d="M7.08311 15.2417C6.57478 15.2417 6.10811 15.0584 5.76645 14.725C5.35811 14.3167 5.18311 13.725 5.27478 13.1L5.63311 10.5917C5.69978 10.1084 6.01645 9.48338 6.35811 9.14172L12.9248 2.57505C14.5831 0.916716 16.2664 0.916716 17.9248 2.57505C18.8331 3.48338 19.2414 4.40838 19.1581 5.33338C19.0831 6.08338 18.6831 6.81672 17.9248 7.56672L11.3581 14.1334C11.0164 14.475 10.3914 14.7917 9.90811 14.8584L7.39978 15.2167C7.29145 15.2417 7.18311 15.2417 7.08311 15.2417ZM13.8081 3.45838L7.24145 10.025C7.08311 10.1834 6.89978 10.55 6.86645 10.7667L6.50811 13.275C6.47478 13.5167 6.52478 13.7167 6.64978 13.8417C6.77478 13.9667 6.97478 14.0167 7.21645 13.9834L9.72478 13.625C9.94145 13.5917 10.3164 13.4084 10.4664 13.25L17.0331 6.68338C17.5748 6.14172 17.8581 5.65838 17.8998 5.20838C17.9498 4.66672 17.6664 4.09172 17.0331 3.45005C15.6998 2.11672 14.7831 2.49172 13.8081 3.45838Z" fill="#353535"/>
<path d="M16.5418 8.69173C16.4835 8.69173 16.4251 8.6834 16.3751 8.66673C14.1835 8.05006 12.4418 6.3084 11.8251 4.11673C11.7335 3.7834 11.9251 3.44173 12.2585 3.34173C12.5918 3.25006 12.9335 3.44173 13.0251 3.77506C13.5251 5.55006 14.9335 6.9584 16.7085 7.4584C17.0418 7.55006 17.2335 7.90006 17.1418 8.2334C17.0668 8.51673 16.8168 8.69173 16.5418 8.69173Z" fill="#353535"/>
</svg>
