<svg width="57" height="56" viewBox="0 0 57 56" fill="none" xmlns="http://www.w3.org/2000/svg">
<path d="M56.1108 28C56.1108 43.1878 43.7987 55.5 28.6108 55.5C13.423 55.5 1.11084 43.1878 1.11084 28C1.11084 12.8122 13.423 0.5 28.6108 0.5C43.7987 0.5 56.1108 12.8122 56.1108 28Z" stroke="#FF8800"/>
<path fill-rule="evenodd" clip-rule="evenodd" d="M28 12C23.6533 12 23.112 12.0183 21.4027 12.0965C15.5893 12.3573 12.3627 15.5102 12.096 21.1954C12.0187 22.8671 12 23.3991 12 27.6473C12 31.8982 12.0187 32.4302 12.096 34.0992C12.3627 39.7818 15.5893 42.94 21.4027 43.2007C23.112 43.2764 23.6533 43.2946 28 43.2946C32.3467 43.2946 32.8907 43.2764 34.6 43.2007C40.4027 42.94 43.6427 39.787 43.904 34.0992C43.9813 32.4302 44 31.8982 44 27.6473C44 23.3991 43.9813 22.8671 43.904 21.1954C43.6427 15.518 40.4133 12.3547 34.6 12.0965C32.8907 12.0183 32.3467 12 28 12ZM27.9992 14.8235C32.2712 14.8235 32.7779 14.8392 34.4659 14.9148C38.8046 15.1078 40.8259 17.1185 41.0259 21.3276C41.1006 22.9784 41.1166 23.4713 41.1166 27.6491C41.1166 31.8269 41.1006 32.3224 41.0259 33.9706C40.8259 38.1771 38.8072 40.193 34.4659 40.386C32.7779 40.459 32.2739 40.4773 27.9992 40.4773C23.7272 40.4773 23.2206 40.4616 21.5352 40.386C17.1886 40.1904 15.1752 38.1719 14.9752 33.9706C14.9006 32.3224 14.8819 31.8269 14.8819 27.6491C14.8819 23.4713 14.9006 22.9758 14.9752 21.3276C15.1726 17.1159 17.1939 15.1052 21.5352 14.9122C23.2206 14.8366 23.7272 14.8235 27.9992 14.8235ZM19.7842 27.6492C19.7842 23.2106 23.4642 19.6143 28.0002 19.6143C32.5361 19.6143 36.2162 23.2132 36.2162 27.6492C36.2162 32.0878 32.5361 35.6841 28.0002 35.6841C23.4642 35.6841 19.7842 32.0878 19.7842 27.6492ZM27.9994 32.8623C25.0527 32.8623 22.6661 30.5282 22.6661 27.6465C22.6661 24.7674 25.0527 22.4308 27.9994 22.4308C30.9434 22.4308 33.3354 24.7648 33.3354 27.6465C33.3354 30.5282 30.9434 32.8623 27.9994 32.8623ZM34.6183 19.2983C34.6183 18.2603 35.4796 17.4206 36.5383 17.4206C37.6023 17.4206 38.4609 18.2603 38.4609 19.2983C38.4609 20.3362 37.5996 21.176 36.5383 21.176C35.4769 21.176 34.6183 20.3336 34.6183 19.2983Z" fill="#FF8800"/>
</svg>
