<svg width="20" height="20" viewBox="0 0 20 20" fill="none" xmlns="http://www.w3.org/2000/svg">
<path d="M9.54967 11.4416C10.8429 11.4416 11.8913 10.3932 11.8913 9.09997C11.8913 7.8067 10.8429 6.7583 9.54967 6.7583C8.25641 6.7583 7.20801 7.8067 7.20801 9.09997C7.20801 10.3932 8.25641 11.4416 9.54967 11.4416Z" fill="white" stroke="#FCFCFD" stroke-width="1.5" stroke-linecap="round" stroke-linejoin="round"/>
<path d="M13.8746 16.8331C13.8746 14.8915 11.9413 13.3081 9.54961 13.3081C7.15794 13.3081 5.22461 14.8831 5.22461 16.8331" stroke="#FCFCFD" stroke-width="1.5" stroke-linecap="round" stroke-linejoin="round"/>
<path d="M17.4998 10.4167C17.4998 14.7917 13.9582 18.3333 9.58317 18.3333C5.20817 18.3333 1.6665 14.7917 1.6665 10.4167C1.6665 6.04167 5.20817 2.5 9.58317 2.5C10.6748 2.5 11.7165 2.71666 12.6665 3.11666C12.5582 3.44999 12.4998 3.8 12.4998 4.16667C12.4998 4.79167 12.6748 5.38333 12.9832 5.88333C13.1498 6.16666 13.3665 6.42498 13.6165 6.64164C14.1998 7.17498 14.9748 7.5 15.8332 7.5C16.1998 7.5 16.5498 7.44165 16.8748 7.32498C17.2748 8.27498 17.4998 9.325 17.4998 10.4167Z" stroke="#FCFCFD" stroke-width="1.5" stroke-linecap="round" stroke-linejoin="round"/>
<path d="M19.1667 4.16683C19.1667 4.4335 19.1333 4.69182 19.0667 4.94182C18.9917 5.27516 18.8583 5.60016 18.6833 5.88349C18.2833 6.55849 17.6417 7.08348 16.875 7.32514C16.55 7.44181 16.2 7.50016 15.8333 7.50016C14.975 7.50016 14.2 7.17514 13.6167 6.6418C13.3667 6.42514 13.15 6.16683 12.9833 5.88349C12.675 5.38349 12.5 4.79183 12.5 4.16683C12.5 3.80016 12.5583 3.45015 12.6667 3.11682C12.825 2.63349 13.0917 2.20018 13.4417 1.84185C14.05 1.21685 14.9 0.833496 15.8333 0.833496C16.8167 0.833496 17.7083 1.25851 18.3083 1.94184C18.8417 2.53351 19.1667 3.31683 19.1667 4.16683Z" stroke="#FCFCFD" stroke-width="1.5" stroke-miterlimit="10" stroke-linecap="round" stroke-linejoin="round"/>
<path d="M17.0751 4.15039H14.5918" stroke="#FCFCFD" stroke-width="1.5" stroke-miterlimit="10" stroke-linecap="round" stroke-linejoin="round"/>
<path d="M15.8335 2.93359V5.42525" stroke="#FCFCFD" stroke-width="1.5" stroke-miterlimit="10" stroke-linecap="round" stroke-linejoin="round"/>
</svg>
