<svg width="57" height="56" viewBox="0 0 57 56" fill="none" xmlns="http://www.w3.org/2000/svg">
<g clip-path="url(#clip0_314_13939)">
<path d="M52.7667 11.2C50.7077 11.2 49.0334 12.8744 49.0334 14.9332C49.0334 16.9921 50.7078 18.6665 52.7667 18.6665C54.8256 18.6665 56.5 16.9922 56.5 14.9332C56.5 12.8744 54.8256 11.2 52.7667 11.2ZM52.7667 16.8C51.7373 16.8 50.9 15.9628 50.9 14.9332C50.9 13.9038 51.7372 13.0665 52.7667 13.0665C53.7962 13.0665 54.6334 13.9037 54.6334 14.9332C54.6333 15.9628 53.7961 16.8 52.7667 16.8ZM4.2333 42C2.17442 42 0.5 43.6744 0.5 45.7332C0.5 47.7921 2.17442 49.4665 4.2333 49.4665C6.29228 49.4665 7.96659 47.7921 7.96659 45.7332C7.96659 43.6744 6.29228 42 4.2333 42ZM4.2333 47.6C3.20386 47.6 2.36659 46.7628 2.36659 45.7332C2.36659 44.7037 3.20375 43.8665 4.2333 43.8665C5.26273 43.8665 6.1 44.7037 6.1 45.7332C6.1 46.7628 5.26284 47.6 4.2333 47.6Z" fill="#6D82EE"/>
<path d="M50.957 12.3798L42.9051 8.4925C42.4403 8.26752 41.8831 8.46352 41.6591 8.92749C41.4351 9.39135 41.6302 9.94949 42.0941 10.1735L50.146 14.0608C50.2563 14.1143 50.3761 14.1454 50.4985 14.1525C50.6209 14.1596 50.7435 14.1424 50.8593 14.102C50.975 14.0616 51.0816 13.9987 51.173 13.917C51.2644 13.8353 51.3388 13.7363 51.3919 13.6258C51.6159 13.1619 51.4209 12.6038 50.957 12.3798ZM42.5 48.5334C40.441 48.5334 38.7667 50.2078 38.7667 52.2667C38.7667 54.3256 40.441 56.0001 42.5 56.0001C44.559 56.0001 46.2333 54.3257 46.2333 52.2668C46.2333 50.2079 44.559 48.5334 42.5 48.5334ZM42.5 54.1334C41.4706 54.1334 40.6333 53.2962 40.6333 52.2667C40.6333 51.2371 41.4706 50.4001 42.5 50.4001C43.5295 50.4001 44.3667 51.2372 44.3667 52.2668C44.3667 53.2963 43.5295 54.1334 42.5 54.1334Z" fill="#6D82EE"/>
<path d="M40.6903 49.7131L32.6384 45.8258C32.5281 45.7723 32.4083 45.7411 32.2859 45.7341C32.1635 45.727 32.0409 45.7442 31.9251 45.7846C31.8094 45.825 31.7027 45.8878 31.6113 45.9696C31.5199 46.0513 31.4455 46.1502 31.3924 46.2608C31.1684 46.7246 31.3635 47.2828 31.8274 47.5068L39.8793 51.3941C39.9896 51.4475 40.1094 51.4786 40.2318 51.4857C40.3542 51.4928 40.4768 51.4756 40.5926 51.4352C40.7083 51.3948 40.815 51.3319 40.9064 51.2502C40.9978 51.1685 41.0722 51.0696 41.1253 50.9591C41.3492 50.4951 41.1542 49.9371 40.6903 49.7131ZM28.5 25.2C26.441 25.2 24.7667 26.8744 24.7667 28.9332C24.7667 30.9922 26.4411 32.6665 28.5 32.6665C30.559 32.6665 32.2333 30.9921 32.2333 28.9332C32.2333 26.8744 30.559 25.2 28.5 25.2ZM28.5 30.8C27.4706 30.8 26.6333 29.9628 26.6333 28.9332C26.6333 27.9038 27.4705 27.0665 28.5 27.0665C29.5295 27.0665 30.3667 27.9037 30.3667 28.9332C30.3667 29.9628 29.5295 30.8 28.5 30.8Z" fill="#6D82EE"/>
<path d="M26.8592 26.4844L20.674 21.6636C20.267 21.3491 19.681 21.4191 19.3636 21.8261C19.0472 22.2331 19.119 22.8191 19.526 23.1365L25.7112 27.9572C25.8749 28.0849 26.0766 28.1542 26.2843 28.1542C26.4264 28.1544 26.5668 28.1222 26.6946 28.0599C26.8223 27.9976 26.9342 27.907 27.0216 27.7949C27.338 27.3878 27.2662 26.8016 26.8592 26.4844ZM45.3 24.2668C39.6393 24.2668 35.0333 28.8728 35.0333 34.5335C35.0333 40.1942 39.6393 44.8002 45.3 44.8002C50.9607 44.8002 55.5667 40.1942 55.5667 34.5335C55.5667 28.8728 50.9607 24.2668 45.3 24.2668ZM45.3 42.9334C40.6679 42.9334 36.9 39.1655 36.9 34.5334C36.9 29.9012 40.6679 26.1334 45.3 26.1334C49.9322 26.1334 53.7 29.9012 53.7 34.5334C53.7 39.1655 49.9322 42.9334 45.3 42.9334Z" fill="#6D82EE"/>
<path d="M45.3 28C43.241 28 41.5667 29.6744 41.5667 31.7333C41.5667 33.7923 43.2411 35.4666 45.3 35.4666C47.359 35.4666 49.0333 33.7922 49.0333 31.7333C49.0333 29.6744 47.359 28 45.3 28ZM45.3 33.6C44.2706 33.6 43.4333 32.7628 43.4333 31.7333C43.4333 30.7039 44.2705 29.8666 45.3 29.8666C46.3294 29.8666 47.1667 30.7037 47.1667 31.7333C47.1667 32.7628 46.3294 33.6 45.3 33.6ZM48.0076 37.3333H42.5924C40.9974 37.3333 39.7 38.5961 39.7 40.1473V42.6076C39.7 42.7713 39.743 42.9322 39.8247 43.074C39.9065 43.2159 40.0241 43.3338 40.1657 43.4159C41.73 44.3212 43.5052 44.8 45.3 44.8C47.0948 44.8 48.87 44.3212 50.4343 43.4159C50.5759 43.334 50.6935 43.2163 50.7752 43.0746C50.857 42.9329 50.9 42.7722 50.9 42.6086V40.1483C50.9 38.5961 49.6027 37.3333 48.0076 37.3333ZM49.0333 42.0513C46.7103 43.2086 43.8897 43.2086 41.5666 42.0513V40.1483C41.5666 39.6256 42.0267 39.2 42.5923 39.2H48.0075C48.5731 39.2 49.0332 39.6256 49.0332 40.1483L49.0333 42.0513ZM22.9 35.4667C17.2393 35.4667 12.6333 40.0727 12.6333 45.7334C12.6333 51.3941 17.2393 56 22.9 56C28.5607 56 33.1667 51.394 33.1667 45.7333C33.1667 40.0726 28.5607 35.4667 22.9 35.4667ZM22.9 54.1333C18.2679 54.1333 14.5 50.3654 14.5 45.7333C14.5 41.1012 18.2679 37.3333 22.9 37.3333C27.5321 37.3333 31.3 41.1012 31.3 45.7333C31.3 50.3654 27.5321 54.1333 22.9 54.1333Z" fill="#6D82EE"/>
<path d="M22.9 39.2C20.841 39.2 19.1667 40.8744 19.1667 42.9333C19.1667 44.9923 20.8411 46.6666 22.9 46.6666C24.9589 46.6666 26.6333 44.9922 26.6333 42.9333C26.6333 40.8744 24.959 39.2 22.9 39.2ZM22.9 44.8C21.8706 44.8 21.0333 43.9628 21.0333 42.9333C21.0333 41.9039 21.8705 41.0666 22.9 41.0666C23.9294 41.0666 24.7667 41.9038 24.7667 42.9333C24.7667 43.9628 23.9294 44.8 22.9 44.8ZM25.6076 48.5333H20.1924C18.5974 48.5333 17.3 49.7962 17.3 51.3473V53.8076C17.3 53.9713 17.343 54.1322 17.4247 54.274C17.5065 54.4159 17.6241 54.5338 17.7657 54.6159C19.33 55.5212 21.1052 56 22.9 56C24.6948 56 26.47 55.5212 28.0343 54.6159C28.1759 54.534 28.2935 54.4163 28.3753 54.2746C28.457 54.1329 28.5 53.9722 28.5 53.8086V51.3483C28.5 49.7961 27.2027 48.5333 25.6076 48.5333ZM26.6333 53.2513C24.3102 54.4086 21.4897 54.4086 19.1666 53.2513V51.3483C19.1666 50.8256 19.6267 50.4 20.1923 50.4H25.6075C26.173 50.4 26.6332 50.8256 26.6332 51.3483L26.6333 53.2513ZM10.7667 12.1333C5.106 12.1333 0.5 16.7393 0.5 22.4C0.5 28.0607 5.106 32.6667 10.7667 32.6667C16.4274 32.6667 21.0334 28.0607 21.0334 22.4C21.0333 16.7393 16.4273 12.1333 10.7667 12.1333ZM10.7667 30.8C6.13456 30.8 2.3667 27.0321 2.3667 22.4C2.3667 17.7679 6.13456 14 10.7667 14C15.3988 14 19.1667 17.7679 19.1667 22.4C19.1667 27.0321 15.3988 30.8 10.7667 30.8Z" fill="#6D82EE"/>
<path d="M10.7667 15.8667C8.7077 15.8667 7.03339 17.5411 7.03339 19.6C7.03339 21.6589 8.70781 23.3333 10.7667 23.3333C12.8257 23.3333 14.5 21.6589 14.5 19.6C14.5 17.5411 12.8256 15.8667 10.7667 15.8667ZM10.7667 21.4667C9.73725 21.4667 8.89998 20.6295 8.89998 19.6C8.89998 18.5705 9.73714 17.7333 10.7667 17.7333C11.7961 17.7333 12.6334 18.5705 12.6334 19.6C12.6334 20.6295 11.7961 21.4667 10.7667 21.4667ZM13.4743 25.2H8.05911C6.46409 25.2 5.16669 26.4628 5.16669 28.014V30.4743C5.16667 30.638 5.20968 30.7989 5.29142 30.9407C5.37316 31.0826 5.49075 31.2005 5.63241 31.2826C7.19669 32.1879 8.97184 32.6667 10.7667 32.6667C12.5615 32.6667 14.3367 32.1879 15.901 31.2826C16.0426 31.2007 16.1602 31.083 16.2419 30.9413C16.3237 30.7996 16.3667 30.6389 16.3667 30.4753V28.015C16.3667 26.4628 15.0693 25.2 13.4743 25.2ZM14.5 29.918C12.177 31.0753 9.35641 31.0753 7.03328 29.918V28.015C7.03328 27.4923 7.49342 27.0667 8.059 27.0667H13.4742C14.0397 27.0667 14.4999 27.4923 14.4999 28.015L14.5 29.918ZM33.1667 0C27.506 0 22.9 4.606 22.9 10.2667C22.9 15.9274 27.506 20.5334 33.1667 20.5334C38.8274 20.5334 43.4334 15.9274 43.4334 10.2667C43.4333 4.606 38.8273 0 33.1667 0ZM33.1667 18.6667C28.5345 18.6667 24.7667 14.8988 24.7667 10.2667C24.7667 5.63456 28.5345 1.8667 33.1667 1.8667C37.7988 1.8667 41.5667 5.63456 41.5667 10.2667C41.5667 14.8988 37.7988 18.6667 33.1667 18.6667Z" fill="#6D82EE"/>
<path d="M33.1667 3.7334C31.1077 3.7334 29.4334 5.40782 29.4334 7.4667C29.4334 9.52557 31.1078 11.2 33.1667 11.2C35.2256 11.2 36.9 9.52568 36.9 7.4668C36.9 5.40793 35.2256 3.7334 33.1667 3.7334ZM33.1667 9.3334C32.1372 9.3334 31.3 8.49624 31.3 7.4667C31.3 6.43726 32.1371 5.59999 33.1667 5.59999C34.1962 5.59999 35.0334 6.43715 35.0334 7.4667C35.0333 8.49624 34.1961 9.3334 33.1667 9.3334ZM35.8743 13.0668H30.4591C28.8641 13.0668 27.5667 14.3297 27.5667 15.8808V18.3411C27.5667 18.5048 27.6097 18.6657 27.6914 18.8075C27.7732 18.9494 27.8907 19.0673 28.0324 19.1494C29.5967 20.0547 31.3718 20.5335 33.1667 20.5335C34.9615 20.5335 36.7367 20.0547 38.301 19.1494C38.4426 19.0675 38.5602 18.9498 38.6419 18.8081C38.7237 18.6664 38.7667 18.5057 38.7667 18.3421V15.8818C38.7667 14.3295 37.4693 13.0668 35.8743 13.0668ZM36.9 17.7848C34.577 18.9421 31.7564 18.9421 29.4333 17.7848V15.8818C29.4333 15.3591 29.8934 14.9335 30.459 14.9335H35.8742C36.4397 14.9335 36.8999 15.3591 36.8999 15.8818L36.9 17.7848ZM24.5436 9.65912C24.2085 9.26898 23.6196 9.22227 23.2276 9.5574L16.7596 15.0921C16.3676 15.4271 16.3218 16.0161 16.6569 16.4081C16.7365 16.5014 16.8337 16.578 16.943 16.6336C17.0523 16.6892 17.1715 16.7227 17.2937 16.7321C17.416 16.7416 17.5389 16.7268 17.6555 16.6886C17.772 16.6505 17.8798 16.5897 17.9729 16.5098L24.4409 10.9751C24.833 10.6401 24.8787 10.0511 24.5436 9.65912Z" fill="#6D82EE"/>
<path d="M45.1133 24.641L39.5133 17.1743C39.2043 16.7608 38.6191 16.6796 38.2066 16.9876C37.794 17.2966 37.711 17.8817 38.0199 18.2933L43.6199 25.76C43.7069 25.8761 43.8197 25.9702 43.9495 26.035C44.0793 26.0998 44.2224 26.1335 44.3674 26.1333C44.5691 26.1333 44.7654 26.0678 44.9266 25.9466C45.3391 25.6377 45.4223 25.0526 45.1133 24.641ZM37.4534 37.6199C37.1444 37.2073 36.5593 37.1243 36.1467 37.4332L30.9331 41.3429C30.5206 41.6519 30.4376 42.237 30.7464 42.6486C30.8334 42.7647 30.9463 42.8588 31.0761 42.9236C31.2059 42.9884 31.349 43.0221 31.494 43.0219C31.6956 43.0216 31.8918 42.9561 32.0531 42.8352L37.2667 38.9255C37.6793 38.6167 37.7624 38.0314 37.4534 37.6199ZM13.5667 44.8H7.03327C6.51812 44.8 6.09998 45.2172 6.09998 45.7333C6.09998 46.2494 6.51812 46.6666 7.03327 46.6666H13.5666C14.0817 46.6666 14.4999 46.2494 14.4999 45.7333C14.4999 45.2172 14.0818 44.8 13.5667 44.8ZM10.7667 0C8.70769 0 7.03327 1.67442 7.03327 3.7333C7.03327 5.79228 8.70769 7.46659 10.7666 7.46659C12.8256 7.46659 14.4999 5.79217 14.4999 3.7333C14.5 1.67442 12.8256 0 10.7667 0ZM10.7667 5.6C9.73724 5.6 8.89998 4.76284 8.89998 3.7333C8.89998 2.70386 9.73713 1.86659 10.7667 1.86659C11.7961 1.86659 12.6334 2.70375 12.6334 3.7333C12.6333 4.76284 11.7961 5.6 10.7667 5.6Z" fill="#6D82EE"/>
<path d="M10.7667 5.6001C10.6441 5.60005 10.5227 5.62417 10.4095 5.67105C10.2962 5.71794 10.1933 5.78668 10.1066 5.87336C10.02 5.96003 9.95122 6.06293 9.90433 6.17619C9.85744 6.28944 9.83333 6.41082 9.83337 6.53339V13.0667C9.83333 13.1893 9.85744 13.3106 9.90433 13.4239C9.95122 13.5372 10.02 13.6401 10.1066 13.7267C10.1933 13.8134 10.2962 13.8821 10.4095 13.929C10.5227 13.9759 10.6441 14 10.7667 14C10.8892 14 11.0106 13.9759 11.1239 13.929C11.2371 13.8821 11.34 13.8134 11.4267 13.7267C11.5134 13.6401 11.5821 13.5372 11.629 13.4239C11.6759 13.3106 11.7 13.1893 11.7 13.0667V6.53339C11.7 6.41082 11.6759 6.28944 11.629 6.17619C11.5821 6.06293 11.5134 5.96003 11.4267 5.87336C11.34 5.78668 11.2371 5.71794 11.1239 5.67105C11.0106 5.62417 10.8892 5.60005 10.7667 5.6001Z" fill="#6D82EE"/>
</g>
<defs>
<clipPath id="clip0_314_13939">
<rect width="56" height="56" fill="white" transform="translate(0.5)"/>
</clipPath>
</defs>
</svg>
