<svg width="20" height="21" viewBox="0 0 20 21" fill="none" xmlns="http://www.w3.org/2000/svg">
<g id="vuesax/outline/logout">
<g id="logout">
<path id="Vector" d="M14.5336 13.3083C14.3752 13.3083 14.2169 13.25 14.0919 13.125C13.8502 12.8833 13.8502 12.4833 14.0919 12.2416L15.7836 10.55L14.0919 8.85828C13.8502 8.61662 13.8502 8.21662 14.0919 7.97495C14.3336 7.73328 14.7336 7.73328 14.9752 7.97495L17.1086 10.1083C17.3502 10.35 17.3502 10.75 17.1086 10.9916L14.9752 13.125C14.8502 13.25 14.6919 13.3083 14.5336 13.3083Z" fill="#717171"/>
<path id="Vector_2" d="M16.6083 11.175H8.1333C7.79163 11.175 7.5083 10.8917 7.5083 10.55C7.5083 10.2084 7.79163 9.92505 8.1333 9.92505H16.6083C16.95 9.92505 17.2333 10.2084 17.2333 10.55C17.2333 10.8917 16.95 11.175 16.6083 11.175Z" fill="#717171"/>
<path id="Vector_3" d="M9.79997 17.7916C5.5083 17.7916 2.5083 14.7916 2.5083 10.4999C2.5083 6.20825 5.5083 3.20825 9.79997 3.20825C10.1416 3.20825 10.425 3.49159 10.425 3.83325C10.425 4.17492 10.1416 4.45825 9.79997 4.45825C6.24163 4.45825 3.7583 6.94159 3.7583 10.4999C3.7583 14.0583 6.24163 16.5416 9.79997 16.5416C10.1416 16.5416 10.425 16.8249 10.425 17.1666C10.425 17.5083 10.1416 17.7916 9.79997 17.7916Z" fill="#717171"/>
</g>
</g>
</svg>
