<svg width="48" height="16" viewBox="0 0 48 16" fill="none" xmlns="http://www.w3.org/2000/svg">
<g id="Logo Concept 1" clip-path="url(#clip0_242_11416)">
<g id="Layer 1">
<g id="Group">
<path id="Vector" d="M34.1386 11.7589C34.9424 11.7466 35.7463 11.7523 36.5482 11.7182C37.3482 11.6851 37.9738 11.3775 38.2 10.5419C38.2996 10.3366 38.3053 10.1321 38.1952 9.92774C37.6778 9.16876 37.1825 8.3937 36.6363 7.65554C36.164 7.01581 35.5977 6.44137 35.1388 5.79312C34.3599 4.69156 34.6205 3.29096 35.8181 2.74207C37.9346 1.77206 40.1123 0.9317 42.3514 0.000488281V1.59036C40.9411 2.17805 39.4934 2.76479 38.062 3.38749C37.5475 3.61177 37.0704 3.92123 36.5769 4.19283C36.3738 4.4474 36.4361 4.71333 36.5396 4.98209C38.4232 7.17006 40.3068 9.35803 42.1895 11.5469C42.3169 11.6463 42.4884 11.6179 42.6235 11.6936C43.0853 11.7145 43.5471 11.7343 44.0089 11.7551C44.35 12.0788 44.3481 12.4734 44.2494 12.8879C44.2159 12.9854 44.1613 13.0696 44.0875 13.1425C44.0041 13.2021 43.9131 13.2457 43.8144 13.275C43.7464 13.2797 43.6784 13.2845 43.6094 13.2892C43.139 13.1084 42.6293 13.3242 42.1579 13.1529C41.308 12.658 40.4582 12.164 39.6342 11.6842C39.2414 12.022 38.7097 12.4791 38.1779 12.9362C38.0562 13.0384 37.8761 12.9996 37.7554 13.1037C37.6337 13.1169 37.512 13.1302 37.3913 13.1444C36.3154 13.2703 35.2385 13.258 34.1616 13.1482C33.7141 12.693 33.7266 12.2302 34.1376 11.7608L34.1386 11.7589Z" fill="#E6901F"/>
<path id="Vector_2" d="M23.9308 12.3078C23.836 12.4024 23.7421 12.497 23.6472 12.5917C23.5754 12.6144 23.5217 12.6588 23.4882 12.726L23.4681 12.7364C23.3857 12.7913 23.3138 12.8633 23.2228 12.9068C23.1577 12.903 23.1002 12.9219 23.0494 12.9636C22.9603 13.0062 22.8894 13.0828 22.7859 13.0961C22.6776 13.1084 22.5703 13.1207 22.4621 13.132C22.2388 13.2636 21.9916 13.1973 21.754 13.2144C20.8419 13.1623 19.9231 13.3251 19.0158 13.1216C18.6182 12.6636 18.6038 12.2065 19.0177 11.7494C19.628 11.7295 20.2383 11.7097 20.8477 11.6907C23.1845 10.7018 23.2535 10.3507 21.6362 8.31225C20.9847 7.49081 20.1118 6.81038 19.8474 5.72492C19.8512 5.65678 19.8292 5.59716 19.7813 5.54795C19.742 5.47508 19.6941 5.40694 19.6405 5.34354L19.65 5.35489C19.5188 5.24228 19.513 5.0937 19.5284 4.9385C19.537 4.68677 19.5332 4.43409 19.5322 4.18236C19.3569 3.10352 20.178 2.64927 20.9061 2.24612C21.778 1.76253 22.7428 1.44645 23.6999 1.14362C23.8245 1.10198 23.9538 1.06886 24.0794 1.03195C24.1522 1.00072 24.2298 0.977061 24.3055 0.952456C24.4099 0.90987 24.5182 0.873909 24.6255 0.837001C24.7251 0.799147 24.8276 0.76981 24.9302 0.740473C25.026 0.706404 25.1227 0.674228 25.2166 0.635428C25.276 0.603252 25.3383 0.5777 25.4006 0.551202C25.4926 0.506724 25.5874 0.467923 25.6832 0.431962C25.7809 0.392215 25.8815 0.359093 25.9821 0.32597C26.0856 0.282438 26.1891 0.239852 26.2926 0.192534C26.3673 0.152788 26.444 0.122504 26.5235 0.09506C26.6557 0.0515277 26.7889 0.0401715 26.9259 0.0695084C27.0207 0.10547 27.0935 0.166036 27.1472 0.249316C27.1769 0.695994 27.2765 1.14551 27.0849 1.58083L27.0504 1.56759C26.9747 1.71522 26.7879 1.65749 26.6873 1.75875L26.6183 1.79755H26.5388C26.443 1.82026 26.374 1.89124 26.2887 1.93288C26.2236 1.94991 26.1594 1.96695 26.0942 1.98398C26.0348 2.03982 25.9668 2.08146 25.8902 2.1089C25.779 2.13918 25.6688 2.16947 25.5577 2.19975C25.4456 2.21205 25.3651 2.28398 25.2779 2.34549C25.23 2.38618 25.1745 2.40132 25.1122 2.38902C25.0355 2.43539 24.9579 2.47987 24.8794 2.52151C24.8094 2.53949 24.7385 2.55842 24.6686 2.5764C24.613 2.64264 24.5421 2.68523 24.4588 2.707L24.4683 2.78744C24.3486 2.89153 24.1656 2.85557 24.0506 2.96914C23.9845 2.98617 23.9174 3.0032 23.8513 3.02024C23.7766 3.06472 23.7028 3.11109 23.63 3.15746L23.6463 3.13853C23.5179 3.37701 23.2362 3.24452 23.0628 3.37417C22.9881 3.3931 22.9143 3.41203 22.8396 3.43096C22.762 3.46597 22.6882 3.50856 22.6211 3.56061C22.5541 3.5502 22.4947 3.56534 22.441 3.60792C22.3548 3.65713 22.2829 3.7319 22.1794 3.74893C22.1239 3.73757 22.0769 3.75272 22.0405 3.79625C21.9629 3.85303 21.8901 3.91738 21.7991 3.95429C21.7291 3.95429 21.6726 3.98173 21.6295 4.03662C21.5557 4.05744 21.5078 4.10571 21.4829 4.17574L21.4513 4.20697C21.3775 4.22968 21.3334 4.27984 21.3143 4.3527C21.3066 4.49276 21.298 4.63282 21.2903 4.77288C21.3344 4.85049 21.3813 4.92619 21.4302 5.00096C21.4599 5.05963 21.4896 5.11925 21.5193 5.17792C21.5365 5.24985 21.5816 5.29906 21.6525 5.32366L21.6726 5.35205C21.7195 5.42871 21.777 5.4959 21.846 5.55363L21.8479 5.55647C22.0645 5.73438 22.4247 5.794 22.3826 6.18579C22.4266 6.2473 22.4717 6.30787 22.5157 6.36938C22.5406 6.44036 22.5876 6.49146 22.6575 6.52269L22.6738 6.54635C22.7246 6.62206 22.783 6.6902 22.8511 6.75076C23.0705 6.92679 23.4317 6.98641 23.3819 7.38198L23.5093 7.55895C23.5428 7.62993 23.5946 7.68481 23.6626 7.72456L23.675 7.7397C23.7306 7.81352 23.791 7.8826 23.8571 7.94695L23.8552 7.94506C24.041 8.1031 24.3543 8.1438 24.3582 8.47123C24.361 8.55641 24.3706 8.64063 24.3859 8.72391C24.4827 8.84504 24.5795 8.96712 24.6763 9.08826C24.7184 9.18857 24.7874 9.26806 24.8746 9.33242L24.8679 9.3239C24.9234 9.4015 24.9963 9.46301 25.0557 9.53778L25.0624 9.54535C25.1333 9.59929 25.1898 9.66459 25.2339 9.74124L25.2588 9.77626C25.3287 9.79708 25.3718 9.84345 25.3862 9.91348L25.5203 10.1075C25.5117 10.3535 25.7292 10.4113 25.8796 10.5248L25.8748 10.5201C25.9314 10.5949 26.0051 10.6554 26.0578 10.733L26.0674 10.7463C26.1335 10.7898 26.1862 10.8456 26.2226 10.9157C26.442 11.1229 26.6614 11.3302 26.8808 11.5374C26.9652 11.616 27.0715 11.6245 27.1798 11.6245C27.288 11.6245 27.3944 11.6349 27.495 11.6784C27.7594 11.704 28.0239 11.7305 28.2883 11.756C28.6706 12.2027 28.6677 12.6626 28.3352 13.133C27.8457 13.2503 27.3561 13.2721 26.8684 13.1235C26.8013 13.1046 26.7343 13.0857 26.6672 13.0667C26.581 13.0251 26.511 12.9513 26.4123 12.9333C26.3558 12.9456 26.3069 12.9305 26.2677 12.8888C26.1853 12.8235 26.1048 12.7544 25.9946 12.7374C25.9429 12.7497 25.9026 12.7346 25.872 12.692C25.6957 12.3409 25.4236 12.0873 25.0662 11.9207C24.9991 11.8601 24.9426 11.791 24.8947 11.7153L24.8736 11.6841C24.8046 11.6595 24.7596 11.6131 24.7414 11.5422C24.6858 11.509 24.6303 11.4769 24.5747 11.4437C24.5162 11.4712 24.4578 11.4986 24.3994 11.5251C24.2882 11.6339 24.1704 11.738 24.1589 11.9084C24.1512 11.9869 24.1253 12.0589 24.0841 12.1261L24.0679 12.1488C23.997 12.1809 23.95 12.2339 23.9232 12.3049L23.9308 12.3078Z" fill="#DD7A14"/>
<path id="Vector_3" d="M19.0193 11.7513C19.0231 12.2065 19.0269 12.6617 19.0308 13.1169L19.0059 13.2058C18.9465 13.2257 18.889 13.2494 18.8334 13.2768C18.7663 13.2806 18.6993 13.2844 18.6332 13.2882C18.1474 13.1765 17.6655 13.1453 17.1931 13.3421C17.104 13.3715 17.0121 13.3894 16.9191 13.397C16.6489 13.415 16.3902 13.3696 16.1478 13.2494C16.076 13.2134 15.9993 13.1916 15.9179 13.1879C15.8796 13.1954 15.8403 13.203 15.802 13.2106C15.7272 13.2323 15.6554 13.2617 15.5874 13.3014L15.5912 13.291C15.5462 13.3563 15.4973 13.4178 15.4456 13.4784C15.3699 13.5768 15.2712 13.6421 15.1562 13.6875C15.0029 13.7424 14.8439 13.768 14.6819 13.7831C14.5612 13.7964 14.4415 13.7831 14.3236 13.7557C14.2843 13.749 14.245 13.7424 14.2058 13.7358C14.0017 13.7188 13.7986 13.7017 13.5945 13.6856C13.2984 13.5446 13.0158 13.6137 12.7351 13.7377C11.8805 13.6487 11.0661 13.3033 10.1894 13.3412C9.71705 13.0601 9.15369 13.3667 8.67847 13.1084C8.34313 12.6342 8.35846 12.1838 8.76662 11.7579L8.74362 11.6898C8.92183 11.5545 9.11345 11.4494 9.34244 11.4276C9.5034 11.3974 9.67106 11.4049 9.83011 11.3586C10.0189 11.3084 10.2124 11.2696 10.358 11.1248L10.3628 11.1191C10.4289 11.0737 10.4759 11.0141 10.5065 10.9412C10.5199 10.8683 10.5343 10.7955 10.5477 10.7217C10.541 10.681 10.5343 10.6403 10.5276 10.5996C10.4816 10.3904 10.496 10.1813 10.5314 9.97215C10.5995 9.48762 10.9109 9.18195 11.3094 8.94063C11.4033 8.85261 11.4972 8.76555 11.5901 8.67754C11.663 8.65104 11.7166 8.60467 11.7511 8.53653L11.7712 8.52328C11.8546 8.47123 11.9245 8.4012 12.0108 8.35294C12.0807 8.35767 12.1411 8.33591 12.1918 8.28764C12.2685 8.24979 12.3403 8.20531 12.4074 8.15231C12.4659 8.16272 12.5233 8.15894 12.5799 8.1419C12.7552 7.96967 13.0168 8.11162 13.2026 7.97724C13.5744 7.9744 13.9452 7.97061 14.3169 7.96777C14.4213 7.98197 14.498 8.05389 14.588 8.09742L14.795 8.14758C15.7081 8.24979 16.3059 8.74662 16.6355 9.57941C16.694 9.7507 16.7514 9.92389 16.8195 10.0923C16.9689 10.4945 17.0992 10.9043 17.2257 11.315L17.2362 11.3217C17.2746 11.3888 17.3311 11.4343 17.4049 11.4598C17.47 11.4882 17.5352 11.5166 17.6003 11.545C18.0612 11.7589 18.5766 11.4958 19.0375 11.7078L19.0183 11.7513H19.0193Z" fill="#D86F0E"/>
<path id="Vector_4" d="M8.76763 11.7591C8.76763 12.219 8.76763 12.678 8.76763 13.138C8.83949 13.1843 8.85961 13.2222 8.82799 13.2515C8.80116 13.2761 8.77242 13.2884 8.74176 13.2884L8.35756 13.279C8.03564 13.1559 7.69935 13.243 7.37072 13.2165C7.18485 13.2165 6.99897 13.2165 6.8131 13.2165C6.26602 13.2809 5.89524 12.9553 5.51487 12.6515C5.38265 12.5711 5.23798 12.538 5.08181 12.5522C4.96492 12.573 4.84899 12.5929 4.73114 12.6127C4.55964 12.6241 4.39581 12.6932 4.22047 12.6733C4.08442 12.6411 3.94742 12.6175 3.80562 12.6212C3.65711 12.6212 3.5086 12.6212 3.3601 12.6212C2.88105 12.573 2.42212 12.6799 1.96414 12.7973C1.46114 12.8077 1.13826 12.5351 0.894899 12.1367L0.883402 12.1301C0.834539 12.0572 0.769388 12.0023 0.689865 11.9645L0.660164 11.9351C0.622798 11.8566 0.56627 11.7941 0.491538 11.7487L0.480999 11.7326C0.430219 11.6493 0.3392 11.5926 0.316205 11.4904L0.342074 11.4989C-0.118774 11.055 -0.101528 10.6084 0.330577 10.1569L0.320038 10.1626C0.483873 9.11217 0.977296 8.35603 2.13181 8.19326C2.20175 8.19137 2.26211 8.16676 2.31193 8.11755C2.57445 7.77687 2.88584 7.51283 3.34189 7.47403C3.55938 7.43996 3.78933 7.48255 3.9934 7.36142C4.07484 7.31504 4.14383 7.25637 4.1994 7.17972C4.72635 6.6649 5.27056 6.68667 5.82913 7.12577C5.90865 7.50432 5.6835 7.92544 5.99392 8.27086C6.1041 8.3778 6.16255 8.50934 6.1865 8.65792C6.19033 8.92952 6.07632 9.21343 6.27656 9.46421C6.34363 9.58062 6.39537 9.70269 6.42411 9.83329C6.45956 10.0008 6.51705 10.1617 6.59274 10.3169C6.77382 10.6632 6.97502 10.9935 7.28353 11.2453C7.41958 11.3475 7.56521 11.427 7.73959 11.444C7.94941 11.5121 8.15061 11.5992 8.34894 11.6938L8.76859 11.7601L8.76763 11.7591Z" fill="#D46408"/>
<path id="Vector_5" d="M34.1383 11.7592C34.1402 12.2144 34.1431 12.6696 34.145 13.1248C34.1019 13.1513 34.0587 13.1787 34.0156 13.2052C33.8623 13.2194 33.709 13.2166 33.5557 13.2166C33.1993 13.1939 32.8372 13.2705 32.4855 13.157C32.0534 12.9932 31.6213 12.8295 31.1586 12.6544C30.7964 12.8002 30.3681 12.9724 29.9389 13.1456C29.5145 13.2582 29.091 13.2563 28.6665 13.1456C28.4251 12.6781 28.4155 12.2153 28.6991 11.7592C28.7652 11.7403 28.8304 11.7223 28.8965 11.7034C29.0814 11.5624 29.341 11.6977 29.5221 11.5415C29.8 11.074 30.0778 10.6075 30.3557 10.14C30.5444 9.49647 30.2455 8.81131 30.5291 8.17536C30.9832 8.17063 31.4374 8.16684 31.8915 8.16211C32.2125 8.94474 31.8723 9.78037 32.0918 10.5706C32.3045 10.8886 32.5181 11.2075 32.7308 11.5255C32.8985 11.7119 33.1658 11.5576 33.3469 11.6986C33.6103 11.7185 33.8748 11.7384 34.1383 11.7583V11.7592Z" fill="#E18519"/>
<path id="Vector_6" d="M44.0126 13.1187C44.0117 12.6635 44.0107 12.2083 44.0098 11.7531C44.737 11.6396 45.3205 11.3594 45.4421 10.5456C45.7018 9.76862 45.3157 8.93583 45.651 8.16455C46.1042 8.16455 46.5574 8.16455 47.0105 8.16455C47.2357 9.02005 47.1533 9.88218 47.0623 10.7443C46.84 11.9093 46.428 12.9209 45.057 13.1547C44.7063 13.2342 44.3556 13.2834 44.0126 13.1197V13.1187Z" fill="#EA9B25"/>
<path id="Vector_7" d="M46.8803 14.5327H48.0003V15.8784H46.8803C46.6532 15.4299 46.6532 14.9813 46.8803 14.5327Z" fill="#EA9F2E"/>
<path id="Vector_8" d="M29.5575 14.5356H30.6411V15.8747H29.5575C29.3266 15.4281 29.3266 14.9814 29.5575 14.5356Z" fill="#E28A22"/>
<path id="Vector_9" d="M45.7785 15.8702H44.7007V14.5415H45.7785C46.0008 14.9844 46.0008 15.4273 45.7785 15.8702Z" fill="#EA9F2E"/>
<path id="Vector_10" d="M32.8957 14.7269C32.8957 15.0458 32.8957 15.3647 32.8957 15.6836C32.5182 15.8899 32.133 15.8029 31.7527 15.7414C31.5524 15.412 31.6147 15.0941 31.6837 14.7221C32.0813 14.5594 32.4846 14.5385 32.8957 14.7269Z" fill="#E1861C"/>
<path id="Vector_11" d="M32.8959 14.7267H31.8171C31.7951 15.0305 31.775 15.2964 31.7472 15.6834H32.8969C32.5137 15.779 32.1314 15.8737 31.6255 15.9995V14.4551C32.0844 14.5535 32.4907 14.6396 32.8969 14.7267H32.8959Z" fill="#E5A555"/>
<path id="Vector_12" d="M34.1451 13.1234C35.2277 13.1291 36.3094 13.1357 37.3921 13.1414C36.3046 13.1916 35.2172 13.2417 34.1307 13.2919C34.0627 13.2483 34.0416 13.2086 34.0684 13.1717C34.0933 13.1367 34.1182 13.1196 34.1441 13.1196L34.146 13.1244L34.1451 13.1234Z" fill="#E8AA54"/>
<path id="Vector_13" d="M28.6993 11.7583C28.7031 12.2192 28.7079 12.6791 28.7118 13.14C28.7827 13.1854 28.8028 13.2233 28.7721 13.2535C28.7453 13.2791 28.7175 13.2923 28.6878 13.2923L28.5968 13.3056L28.5058 13.2933C28.4128 13.2621 28.3438 13.2034 28.2979 13.1173C28.2979 12.6649 28.2979 12.2126 28.2979 11.7592C28.432 11.7592 28.5652 11.7592 28.6993 11.7583Z" fill="#DD7B15"/>
<path id="Vector_14" d="M19.0312 13.1172C19.9759 13.1219 20.9206 13.1266 21.8653 13.1304C21.9324 13.1815 21.9487 13.2203 21.9161 13.2468C21.8912 13.2676 21.8615 13.278 21.8289 13.278C20.8928 13.278 19.9568 13.279 19.0207 13.2799C18.9824 13.2411 18.9709 13.2042 18.9872 13.1683C19.0025 13.1342 19.0178 13.1162 19.0322 13.1162L19.0312 13.1172Z" fill="#E19441"/>
<path id="Vector_15" d="M25.0747 11.9236C25.6237 11.8952 25.9083 12.1366 25.8805 12.6949C25.6122 12.4375 25.3439 12.181 25.0747 11.9236Z" fill="#DD7B15"/>
<path id="Vector_16" d="M2.51164 12.7621C2.30757 12.6845 2.10349 12.6069 1.89941 12.5293C2.44362 12.5321 2.98782 12.5359 3.53202 12.5388C3.59621 12.5908 3.6125 12.6306 3.57897 12.6571C3.55406 12.6779 3.52531 12.6883 3.49274 12.6883C3.16603 12.7129 2.83931 12.7384 2.51164 12.763V12.7621Z" fill="#DD934F"/>
<path id="Vector_17" d="M10.4025 13.1529C10.2569 13.2172 10.1113 13.2816 9.96565 13.3469C9.5575 13.327 9.14934 13.3071 8.74023 13.2882C8.75077 13.238 8.7594 13.1888 8.7661 13.1387C9.31126 13.1434 9.85642 13.1491 10.4016 13.1538L10.4025 13.1529Z" fill="#E09951"/>
<path id="Vector_18" d="M17.4193 13.3405C17.2948 13.3301 17.1702 13.3188 17.0457 13.3084C16.9623 13.279 16.9413 13.226 16.9805 13.1484C17.5314 13.1948 18.0814 13.2412 18.6323 13.2885C18.228 13.3065 17.8237 13.3235 17.4193 13.3415V13.3405Z" fill="#DF954A"/>
<path id="Vector_19" d="M28.2978 13.1162C28.3668 13.1749 28.4367 13.2336 28.5057 13.2922C27.9625 13.2373 27.4202 13.1825 26.877 13.1266C27.3503 13.1228 27.8245 13.12 28.2978 13.1162Z" fill="#E29B4D"/>
<path id="Vector_20" d="M28.6875 13.2929C28.698 13.2421 28.7057 13.1904 28.7124 13.1387C29.1215 13.1406 29.5306 13.1425 29.9388 13.1444C29.522 13.1942 29.1043 13.2431 28.6875 13.2929Z" fill="#E5A453"/>
<path id="Vector_21" d="M32.4858 13.1556C32.9017 13.1433 33.3165 13.1319 33.7323 13.1196C33.8071 13.1518 33.8339 13.1878 33.8128 13.2285C33.7917 13.2701 33.7687 13.2909 33.7457 13.2909C33.3261 13.2455 32.9055 13.2001 32.4858 13.1556Z" fill="#E5A250"/>
<path id="Vector_22" d="M5.7583 7.13721C5.80621 7.14762 5.85411 7.15803 5.90202 7.16749C5.92788 7.49398 5.95375 7.81953 5.98058 8.14602C5.95854 8.21416 5.93651 8.28229 5.91351 8.35043C5.86178 7.94634 5.81004 7.5413 5.7583 7.13721Z" fill="#DC8F48"/>
<path id="Vector_23" d="M7.31733 13.1509C7.66321 13.194 8.01004 13.2361 8.35592 13.2793C8.02441 13.285 7.69291 13.2917 7.3614 13.2975C7.29434 13.2821 7.26464 13.2553 7.27422 13.217C7.28476 13.1729 7.29913 13.1509 7.31733 13.1509Z" fill="#DA863B"/>
<path id="Vector_24" d="M44.0124 13.1191C44.3602 13.1305 44.708 13.1428 45.0567 13.1541C44.7032 13.1967 44.3506 13.2393 43.9971 13.2819C43.9482 13.2223 43.953 13.1674 44.0134 13.1182L44.0124 13.1191Z" fill="#EBB35B"/>
<path id="Vector_25" d="M12.9875 13.7343C12.9071 13.6718 12.8266 13.6093 12.7461 13.5469C13.0287 13.5932 13.3114 13.6396 13.595 13.686C13.3928 13.7021 13.1897 13.7182 12.9875 13.7343Z" fill="#DE9043"/>
<path id="Vector_26" d="M19.4336 4.1692C19.4872 4.16257 19.5418 4.155 19.5955 4.14648C19.5984 4.42471 19.6012 4.70389 19.6032 4.98211C19.5399 5.03984 19.4872 5.03416 19.447 4.95562C19.4422 4.69348 19.4374 4.43134 19.4326 4.16825L19.4336 4.1692Z" fill="#E6B97F"/>
<path id="Vector_27" d="M33.346 11.6995C33.141 11.6418 32.936 11.5841 32.73 11.5264C32.935 11.5841 33.1401 11.6418 33.346 11.6995Z" fill="#E8B979"/>
<path id="Vector_28" d="M7.31743 13.151C7.3318 13.1993 7.34713 13.2476 7.3615 13.2958C7.16892 13.2958 6.97538 13.2968 6.78281 13.2977C6.76748 13.2409 6.75215 13.1832 6.73682 13.1255C6.93035 13.134 7.12389 13.1425 7.31743 13.1501V13.151Z" fill="#E3B27F"/>
<path id="Vector_29" d="M21.8276 13.2808C21.8391 13.231 21.8516 13.1812 21.864 13.1313C22.0633 13.1323 22.2636 13.1333 22.4629 13.1342C22.2511 13.1831 22.0394 13.2319 21.8276 13.2808Z" fill="#E6B77D"/>
<path id="Vector_30" d="M24.0869 11.9693C24.1933 11.8226 24.3006 11.675 24.4069 11.5283C24.36 11.657 24.313 11.7848 24.2661 11.9135C24.2191 11.9712 24.1588 11.9873 24.0869 11.9693Z" fill="#DD7B15"/>
<path id="Vector_31" d="M19.4478 4.95557C19.4995 4.96314 19.5522 4.9726 19.6039 4.98206C19.6202 5.10698 19.6365 5.2319 19.6528 5.35587C19.5848 5.22244 19.5167 5.089 19.4487 4.95557H19.4478Z" fill="#EDE4CA"/>
<path id="Vector_32" d="M26.6909 1.76099C26.8116 1.69758 26.9324 1.63323 27.054 1.56982C26.9333 1.63323 26.8126 1.69758 26.6909 1.76099Z" fill="#DD7B16"/>
<path id="Vector_33" d="M42.6235 11.6934C42.4788 11.6436 42.3341 11.5938 42.1895 11.5449C42.3341 11.5947 42.4788 11.6446 42.6235 11.6934Z" fill="#E9B66C"/>
<path id="Vector_34" d="M3.49268 12.6876C3.50609 12.6375 3.5195 12.5882 3.53196 12.5381C3.66705 12.5447 3.80214 12.5523 3.93628 12.5589C3.93053 12.6119 3.92478 12.6658 3.91903 12.7188C3.77627 12.7084 3.63448 12.698 3.49268 12.6867V12.6876Z" fill="#E5BD90"/>
<path id="Vector_35" d="M33.7463 13.2919C33.7387 13.2351 33.7348 13.1774 33.7329 13.1206C33.8699 13.1206 34.0069 13.1206 34.143 13.1206C34.143 13.1793 34.1391 13.237 34.1305 13.2938C34.0021 13.2938 33.8747 13.2938 33.7463 13.2928V13.2919Z" fill="#E6901F"/>
<path id="Vector_36" d="M27.5045 11.6814L27.1471 11.7098C27.0829 11.6909 27.0503 11.6597 27.0513 11.6143C27.0513 11.5631 27.0609 11.5376 27.0772 11.5376C27.2199 11.5849 27.3627 11.6332 27.5054 11.6805L27.5045 11.6814Z" fill="#E7BC85"/>
<path id="Vector_37" d="M22.7866 13.099C22.8748 13.0539 22.962 13.0089 23.0501 12.9648C22.962 13.0099 22.8748 13.0549 22.7866 13.099Z" fill="#EDE3C8"/>
<path id="Vector_38" d="M12.4084 8.15332C12.3366 8.19931 12.2647 8.2453 12.1929 8.29033C12.2647 8.24434 12.3366 8.19835 12.4084 8.15332Z" fill="#EDE4CA"/>
<path id="Vector_39" d="M21.3208 4.35653C21.3668 4.30767 21.4118 4.25881 21.4578 4.20898C21.4118 4.25785 21.3668 4.30671 21.3208 4.35653Z" fill="#EDE4C9"/>
<path id="Vector_40" d="M19.0299 13.1172C19.027 13.1711 19.0232 13.226 19.0193 13.2799L18.9255 13.296L18.8325 13.2761C18.8986 13.2231 18.9638 13.1692 19.0299 13.1162V13.1172Z" fill="#DD7A14"/>
<path id="Vector_41" d="M26.0029 12.7402C26.0939 12.791 26.185 12.8418 26.276 12.8935C26.185 12.8428 26.0939 12.792 26.0029 12.7402Z" fill="#DD7B15"/>
<path id="Vector_42" d="M23.2227 12.9076C23.3041 12.8509 23.3855 12.7941 23.4679 12.7373C23.3865 12.7941 23.3051 12.8509 23.2227 12.9076Z" fill="#EDE3C8"/>
<path id="Vector_43" d="M44.0128 13.1182C44.009 13.1731 44.0032 13.227 43.9965 13.2819L43.9055 13.2913L43.8154 13.2734C43.8815 13.2213 43.9476 13.1702 44.0138 13.1182H44.0128Z" fill="#EA9B25"/>
<path id="Vector_44" d="M21.6591 5.32772C21.615 5.27886 21.5709 5.22904 21.5259 5.18018C21.5814 5.21946 21.6255 5.26928 21.6591 5.32772Z" fill="#EDE4C9"/>
<path id="Vector_45" d="M24.0872 11.9689C24.1475 11.9538 24.2079 11.9349 24.2663 11.9131C24.2079 11.985 24.1504 12.0569 24.0919 12.1279C24.0881 12.0749 24.0862 12.0219 24.0872 11.968V11.9689Z" fill="#EDE3C8"/>
<path id="Vector_46" d="M24.8843 2.52525C24.9619 2.48022 25.0395 2.43519 25.1171 2.39111C25.0395 2.43614 24.9619 2.48117 24.8843 2.52525Z" fill="#DD7B16"/>
<path id="Vector_47" d="M25.2827 2.34823C25.3757 2.29937 25.4686 2.2505 25.5625 2.20068C25.4695 2.24955 25.3766 2.29841 25.2827 2.34823Z" fill="#DD7B16"/>
<path id="Vector_48" d="M24.9033 11.7183C24.9608 11.7864 25.0183 11.8555 25.0748 11.9236C25.0173 11.8555 24.9598 11.7864 24.9033 11.7183Z" fill="#DD7B15"/>
<path id="Vector_49" d="M0.490723 11.7466C0.547251 11.809 0.603779 11.8706 0.659349 11.933C0.602821 11.8706 0.546293 11.809 0.490723 11.7466Z" fill="#EDE4CA"/>
<path id="Vector_50" d="M27.076 11.5378C27.1029 11.5936 27.1258 11.6514 27.1469 11.71C27.0617 11.6532 26.9764 11.5965 26.8911 11.5397C26.9524 11.5293 27.0147 11.5283 27.077 11.5378H27.076Z" fill="#DD7B15"/>
<path id="Vector_51" d="M24.749 11.5449C24.8036 11.5832 24.8477 11.6312 24.8812 11.6886C24.8372 11.6407 24.7931 11.5928 24.749 11.5449Z" fill="#DD7B15"/>
<path id="Vector_52" d="M10.5085 10.9404C10.4606 11 10.4127 11.0597 10.3647 11.1183C10.4127 11.0587 10.4606 10.9991 10.5085 10.9404Z" fill="#EDE4CA"/>
<path id="Vector_53" d="M26.0673 10.7349C26.006 10.6639 25.9446 10.5929 25.8843 10.522C25.9456 10.5929 26.0069 10.6639 26.0673 10.7349Z" fill="#DD7B15"/>
<path id="Vector_54" d="M25.3945 9.91822C25.3428 9.8799 25.3006 9.83391 25.2671 9.7793C25.3092 9.82529 25.3524 9.87223 25.3945 9.91822Z" fill="#DD7B15"/>
<path id="Vector_55" d="M24.2622 8.58301C24.3187 8.59546 24.3753 8.60792 24.4308 8.62133C24.4213 8.65774 24.4088 8.69415 24.3944 8.7296C24.3398 8.69032 24.2957 8.64145 24.2622 8.58301Z" fill="#DD7B15"/>
<path id="Vector_56" d="M15.8068 13.1172C15.8068 13.1834 15.8068 13.2497 15.8068 13.3159C15.733 13.3112 15.6592 13.3074 15.5864 13.3027C15.6592 13.2412 15.733 13.1787 15.8068 13.1172Z" fill="#EDE3C8"/>
<path id="Vector_57" d="M12.3599 10.5507C12.6348 10.2809 12.9089 10.0103 13.1838 9.74057C13.4598 9.64972 13.7347 9.64405 14.0088 9.74531C14.2799 9.94972 14.551 10.1551 14.8222 10.3595C14.9237 10.4825 14.8892 10.6557 14.9822 10.7816C14.9803 10.9065 14.9793 11.0323 14.9774 11.1573C14.8902 11.2879 14.918 11.4563 14.8308 11.5869C14.2205 12.3714 13.4559 12.4131 12.2075 11.7043V10.9784C12.3072 10.8525 12.2765 10.6812 12.3599 10.5507Z" fill="#EDE3C9"/>
<path id="Vector_58" d="M14.9764 10.7424C14.9228 10.6014 14.8701 10.4604 14.8164 10.3203C14.8701 10.4613 14.9228 10.6023 14.9764 10.7424Z" fill="#E3B177"/>
<path id="Vector_59" d="M12.355 10.5107C12.3042 10.6536 12.2534 10.7965 12.2026 10.9385C12.2534 10.7956 12.3042 10.6527 12.355 10.5107Z" fill="#E4B178"/>
<path id="Vector_60" d="M14.8247 11.5478C14.8736 11.4049 14.9224 11.262 14.9713 11.1182C14.9224 11.2611 14.8736 11.404 14.8247 11.5478Z" fill="#E5B57E"/>
<path id="Vector_61" d="M16.9809 13.148C17.001 13.2026 17.0221 13.2563 17.046 13.3099C16.9723 13.264 16.8985 13.2189 16.8247 13.1729C16.8755 13.1557 16.9272 13.1471 16.9809 13.148Z" fill="#EDE3C8"/>
<path id="Vector_62" d="M4.50625 9.35066C4.52158 9.47653 4.53595 9.60239 4.55128 9.72826C4.64326 9.86075 4.62314 10.0283 4.6902 10.1683C4.71032 10.2857 4.73044 10.404 4.75056 10.5213C4.83967 10.6623 4.85021 10.7986 4.71895 10.9235C3.72156 11.321 2.72513 11.7052 1.6626 10.8355C2.07267 9.75475 2.85735 9.19262 3.90647 8.91723C3.98887 8.87559 4.07223 8.83868 4.16804 8.8595C4.22648 8.87275 4.28013 8.90114 4.33187 8.93521C4.43152 9.05635 4.4181 9.2248 4.50625 9.35066Z" fill="#EDE3C8"/>
<path id="Vector_63" d="M4.73698 12.3354C4.59614 12.3922 4.45529 12.449 4.31445 12.5048C4.45529 12.4481 4.59614 12.3913 4.73698 12.3354Z" fill="#E1A56A"/>
<path id="Vector_64" d="M6.16064 9.91748C6.2143 10.0594 6.26699 10.2014 6.32065 10.3424C6.26699 10.2004 6.2143 10.0585 6.16064 9.91748Z" fill="#DF9B5B"/>
<path id="Vector_65" d="M7.13428 11.5415C7.27895 11.5894 7.42267 11.6373 7.56734 11.6862C7.42267 11.6383 7.27895 11.5904 7.13428 11.5415Z" fill="#E2A86F"/>
</g>
</g>
</g>
<defs>
<clipPath id="clip0_242_11416">
<rect width="48" height="16" fill="white"/>
</clipPath>
</defs>
</svg>
