<svg width="20" height="21" viewBox="0 0 20 21" fill="none" xmlns="http://www.w3.org/2000/svg">
<path d="M9.99984 19.4584C5.05817 19.4584 1.0415 15.4417 1.0415 10.5001C1.0415 5.55841 5.05817 1.54175 9.99984 1.54175C14.9415 1.54175 18.9582 5.55841 18.9582 10.5001C18.9582 15.4417 14.9415 19.4584 9.99984 19.4584ZM9.99984 2.79175C5.74984 2.79175 2.2915 6.25008 2.2915 10.5001C2.2915 14.7501 5.74984 18.2084 9.99984 18.2084C14.2498 18.2084 17.7082 14.7501 17.7082 10.5001C17.7082 6.25008 14.2498 2.79175 9.99984 2.79175Z" fill="#717171"/>
<path d="M13.3332 11.125H6.6665C6.32484 11.125 6.0415 10.8417 6.0415 10.5C6.0415 10.1583 6.32484 9.875 6.6665 9.875H13.3332C13.6748 9.875 13.9582 10.1583 13.9582 10.5C13.9582 10.8417 13.6748 11.125 13.3332 11.125Z" fill="#717171"/>
<path d="M10 14.4584C9.65833 14.4584 9.375 14.1751 9.375 13.8334V7.16675C9.375 6.82508 9.65833 6.54175 10 6.54175C10.3417 6.54175 10.625 6.82508 10.625 7.16675V13.8334C10.625 14.1751 10.3417 14.4584 10 14.4584Z" fill="#353535"/>
</svg>
