<svg width="39" height="40" viewBox="0 0 39 40" fill="none" xmlns="http://www.w3.org/2000/svg">
<rect x="1.75" y="2.375" width="35.25" height="35.25" rx="17.625" fill="white"/>
<rect x="1.75" y="2.375" width="35.25" height="35.25" rx="17.625" stroke="#FF8800" stroke-width="3"/>
<path d="M22.5627 13.67V12.5C22.5627 12.1925 22.3077 11.9375 22.0002 11.9375C21.6927 11.9375 21.4377 12.1925 21.4377 12.5V13.625H16.5627V12.5C16.5627 12.1925 16.3077 11.9375 16.0002 11.9375C15.6927 11.9375 15.4377 12.1925 15.4377 12.5V13.67C13.4127 13.8575 12.4302 15.065 12.2802 16.8575C12.2652 17.075 12.4452 17.255 12.6552 17.255H25.3452C25.5627 17.255 25.7427 17.0675 25.7202 16.8575C25.5702 15.065 24.5877 13.8575 22.5627 13.67Z" fill="#FF8800"/>
<path d="M25 18.3801H13C12.5875 18.3801 12.25 18.7176 12.25 19.1301V23.7501C12.25 26.0001 13.375 27.5001 16 27.5001H19.6975C20.215 27.5001 20.575 26.9976 20.41 26.5101C20.26 26.0751 20.1325 25.5951 20.1325 25.2501C20.1325 22.9776 21.985 21.1251 24.2575 21.1251C24.475 21.1251 24.6925 21.1401 24.9025 21.1776C25.3525 21.2451 25.7575 20.8926 25.7575 20.4426V19.1376C25.75 18.7176 25.4125 18.3801 25 18.3801ZM16.9075 24.2826C16.8325 24.3501 16.75 24.4026 16.66 24.4401C16.57 24.4776 16.4725 24.5001 16.375 24.5001C16.2775 24.5001 16.18 24.4776 16.09 24.4401C16 24.4026 15.9175 24.3501 15.8425 24.2826C15.7075 24.1401 15.625 23.9451 15.625 23.7501C15.625 23.7051 15.6325 23.6526 15.64 23.6076C15.6475 23.5551 15.6625 23.5101 15.685 23.4651C15.7 23.4201 15.7225 23.3751 15.7525 23.3301C15.775 23.2926 15.8125 23.2551 15.8425 23.2176C15.9175 23.1501 16 23.0976 16.09 23.0601C16.27 22.9851 16.48 22.9851 16.66 23.0601C16.75 23.0976 16.8325 23.1501 16.9075 23.2176C16.9375 23.2551 16.975 23.2926 16.9975 23.3301C17.0275 23.3751 17.05 23.4201 17.065 23.4651C17.0875 23.5101 17.1025 23.5551 17.11 23.6076C17.1175 23.6526 17.125 23.7051 17.125 23.7501C17.125 23.9451 17.0425 24.1401 16.9075 24.2826ZM16.9075 21.6576C16.8325 21.7251 16.75 21.7776 16.66 21.8151C16.57 21.8526 16.4725 21.8751 16.375 21.8751C16.2775 21.8751 16.18 21.8526 16.09 21.8151C15.9925 21.7776 15.9175 21.7251 15.8425 21.6576C15.7075 21.5151 15.625 21.3201 15.625 21.1251C15.625 20.9301 15.7075 20.7351 15.8425 20.5926C15.9175 20.5251 16 20.4726 16.09 20.4351C16.27 20.3601 16.48 20.3601 16.66 20.4351C16.75 20.4726 16.8325 20.5251 16.9075 20.5926C16.9375 20.6301 16.975 20.6676 16.9975 20.7051C17.0275 20.7501 17.05 20.7951 17.065 20.8401C17.0875 20.8851 17.1025 20.9301 17.11 20.9751C17.1175 21.0276 17.125 21.0801 17.125 21.1251C17.125 21.3201 17.0425 21.5151 16.9075 21.6576ZM19.5325 21.6576C19.39 21.7926 19.2025 21.8751 19 21.8751C18.9025 21.8751 18.805 21.8526 18.715 21.8151C18.6175 21.7776 18.5425 21.7251 18.4675 21.6576C18.3325 21.5151 18.25 21.3201 18.25 21.1251C18.25 21.0801 18.2575 21.0276 18.265 20.9751C18.2725 20.9301 18.2875 20.8851 18.31 20.8401C18.325 20.7951 18.3475 20.7501 18.3775 20.7051C18.4075 20.6676 18.4375 20.6301 18.4675 20.5926C18.745 20.3151 19.2475 20.3151 19.5325 20.5926C19.5625 20.6301 19.5925 20.6676 19.6225 20.7051C19.6525 20.7501 19.675 20.7951 19.69 20.8401C19.7125 20.8851 19.7275 20.9301 19.735 20.9751C19.7425 21.0276 19.75 21.0801 19.75 21.1251C19.75 21.3201 19.6675 21.5151 19.5325 21.6576Z" fill="#FF8800"/>
<path d="M26.3725 23.1275C25.2025 21.9575 23.2975 21.9575 22.1275 23.1275C20.9575 24.2975 20.9575 26.2025 22.1275 27.3725C23.2975 28.5425 25.2025 28.5425 26.3725 27.3725C27.5425 26.2025 27.5425 24.2975 26.3725 23.1275ZM25.8025 25.67C25.705 25.775 25.5625 25.835 25.405 25.835H24.85V26.42C24.85 26.5775 24.79 26.7125 24.685 26.8175C24.58 26.9225 24.445 26.9825 24.2875 26.9825C23.98 26.9825 23.725 26.7275 23.725 26.42V25.835H23.1625C22.855 25.835 22.6 25.5875 22.6 25.2725C22.6 24.965 22.855 24.71 23.1625 24.71H23.725V24.1775C23.725 23.87 23.9725 23.615 24.2875 23.615C24.595 23.615 24.85 23.87 24.85 24.1775V24.71H25.405C25.72 24.71 25.9675 24.965 25.9675 25.2725C25.9675 25.43 25.9075 25.5725 25.8025 25.67Z" fill="#FF8800"/>
</svg>
