<svg width="57" height="56" viewBox="0 0 57 56" fill="none" xmlns="http://www.w3.org/2000/svg">
<path d="M50.6334 33.9061C51.2064 31.7531 51.462 29.5174 51.3907 27.2627C51.3764 26.8099 50.9993 26.4519 50.5449 26.4688C50.3275 26.4757 50.1217 26.5686 49.9728 26.7273C49.8239 26.8859 49.7441 27.0971 49.751 27.3146C49.7582 27.5422 49.7618 27.7727 49.7618 28C49.7618 29.749 49.5501 31.4804 49.1315 33.1601C47.7446 32.5902 46.2267 32.2757 44.6368 32.2757C38.0963 32.2757 32.7751 37.5968 32.7751 44.1373C32.7751 45.7273 33.0896 47.2451 33.6596 48.6321C31.9799 49.0506 30.2483 49.2624 28.4995 49.2624C25.3159 49.2624 22.2635 48.5793 19.4183 47.2315L23.7149 43.0529C24.695 42.0998 24.1828 40.4353 22.8363 40.198L22.2101 40.0876C21.9959 40.0499 21.7754 40.0988 21.5972 40.2236C21.419 40.3484 21.2977 40.5389 21.2599 40.7532C21.2222 40.9674 21.2711 41.1879 21.3959 41.3661C21.5207 41.5443 21.7112 41.6656 21.9255 41.7034L22.5516 41.8137C22.5823 41.8192 22.5935 41.8551 22.571 41.8769L18.2063 46.1217C17.4593 46.8483 17.7643 47.7573 17.7604 47.8518L17.7611 47.8571L18.6921 53.8156C18.6934 53.8225 18.6927 53.8296 18.6901 53.836C18.6875 53.8425 18.6831 53.8481 18.6774 53.8521C18.6717 53.8562 18.665 53.8585 18.658 53.8589C18.6511 53.8593 18.6441 53.8577 18.6381 53.8542L13.1488 50.9388C12.9065 50.8099 12.6363 50.7425 12.3618 50.7425C12.0874 50.7425 11.8171 50.8099 11.5749 50.9388L6.08561 53.8542C6.07954 53.8577 6.0726 53.8594 6.06562 53.859C6.05864 53.8587 6.0519 53.8563 6.04621 53.8523C6.04052 53.8482 6.03612 53.8426 6.03352 53.8361C6.03093 53.8296 6.03026 53.8225 6.03158 53.8156L7.00531 47.5834C7.0465 47.3185 7.02369 47.0476 6.93882 46.7933C6.85394 46.539 6.70945 46.3087 6.51741 46.1217L2.15282 41.8769C2.14773 41.8723 2.14407 41.8662 2.14226 41.8596C2.14045 41.8529 2.14057 41.8458 2.14261 41.8392C2.14465 41.8326 2.14852 41.8267 2.15377 41.8222C2.15902 41.8177 2.16545 41.8147 2.17229 41.8137L8.3181 40.7307C8.69335 40.6647 8.96121 40.5108 9.17393 40.2981C9.48914 39.9829 9.35068 40.1698 12.329 34.4345C12.332 34.4283 12.3366 34.4231 12.3425 34.4194C12.3483 34.4158 12.355 34.4138 12.3619 34.4138C12.3688 34.4138 12.3755 34.4158 12.3813 34.4194C12.3872 34.4231 12.3918 34.4283 12.3948 34.4345L15.208 39.8517C15.3273 40.0799 15.4973 40.2777 15.7049 40.4301C15.9125 40.5824 16.1522 40.6853 16.4057 40.7307L18.1357 41.0357C18.3494 41.0721 18.5688 41.0225 18.746 40.8976C18.9232 40.7728 19.0438 40.5829 19.0814 40.3694C19.119 40.156 19.0706 39.9363 18.9468 39.7584C18.823 39.5805 18.6338 39.4589 18.4205 39.42L16.6905 39.1151C16.6849 39.1141 16.6796 39.1119 16.675 39.1085C16.6704 39.1051 16.6666 39.1007 16.664 39.0956L13.851 33.6786C13.2254 32.4737 11.4991 32.4733 10.8731 33.6786L9.19176 36.9161C7.90916 34.1368 7.23685 31.0847 7.23685 28C7.23652 26.5639 7.38059 25.1315 7.6669 23.7242H20.669C22.6289 23.7242 24.2236 22.1296 24.2236 20.1696V15.9906C24.2236 15.773 24.1371 15.5644 23.9833 15.4105C23.8295 15.2567 23.6208 15.1703 23.4033 15.1703C23.1857 15.1703 22.9771 15.2567 22.8233 15.4105C22.6694 15.5644 22.583 15.773 22.583 15.9906V20.1696C22.583 21.225 21.7243 22.0836 20.669 22.0836H4.0548C2.99947 22.0836 2.14079 21.225 2.14079 20.1696V3.55544C2.14079 2.50012 2.99947 1.64144 4.0548 1.64144H20.669C21.7243 1.64144 22.583 2.50012 22.583 3.55544V6.4901C22.5828 6.50093 22.5828 6.51176 22.583 6.52259V12.1625C22.583 12.3801 22.6694 12.5887 22.8233 12.7426C22.9771 12.8964 23.1857 12.9828 23.4033 12.9828C23.6208 12.9828 23.8295 12.8964 23.9833 12.7426C24.1371 12.5887 24.2236 12.3801 24.2236 12.1625V7.16755C25.6308 6.88119 27.0633 6.73711 28.4993 6.7375C31.8573 6.7375 35.1743 7.53362 38.1448 9.04623L33.2242 17.5953C31.9428 19.8215 33.5474 22.6022 36.1195 22.6022H49.0707C49.1615 22.9493 49.2439 23.3 49.3167 23.6501C49.361 23.863 49.4881 24.0497 49.6701 24.169C49.852 24.2882 50.0738 24.3304 50.2868 24.2862C50.3923 24.2642 50.4924 24.2218 50.5814 24.1611C50.6705 24.1005 50.7467 24.0229 50.8058 23.9329C50.8649 23.8428 50.9056 23.7419 50.9257 23.6361C50.9458 23.5303 50.9449 23.4215 50.9229 23.316C50.8732 23.0772 50.8197 22.8393 50.7624 22.6022H53.1542C55.7229 22.6022 57.3325 19.8244 56.0495 17.5953L47.5321 2.79717C46.2484 0.566974 43.0275 0.562928 41.7416 2.79717L38.9641 7.62275C35.7444 5.96818 32.1439 5.09704 28.4993 5.09704C27.0648 5.09681 25.6333 5.23031 24.2236 5.49581V3.55555C24.2236 1.59561 22.6289 0.000976562 20.669 0.000976562H4.0548C2.09486 0.000976562 0.50022 1.59561 0.50022 3.55555V20.1698C0.50022 22.1297 2.09486 23.7243 4.0548 23.7243H5.99505C5.72955 25.1341 5.59605 26.5655 5.59628 28.0001C5.59628 31.7403 6.51434 35.4367 8.2551 38.7199L8.05998 39.0956C8.05736 39.1007 8.0536 39.1051 8.04899 39.1085C8.04438 39.1119 8.03904 39.1142 8.03341 39.1152L1.8876 40.1982C0.541344 40.4354 0.0289381 42.1 1.00902 43.0531L5.3736 47.2978C5.37786 47.302 5.38106 47.3071 5.38295 47.3127C5.38483 47.3183 5.38534 47.3244 5.38443 47.3302L4.41069 53.5625C4.19753 54.9274 5.63511 55.9513 6.85526 55.3032L12.3445 52.3878C12.3499 52.3849 12.3558 52.3834 12.3619 52.3834C12.368 52.3834 12.3739 52.3849 12.3793 52.3878L17.8685 55.3032C19.0853 55.9495 20.5266 54.9295 20.3131 53.5625L19.6188 49.1188C22.4244 50.3036 25.4047 50.9033 28.4993 50.9033C30.5036 50.9033 32.4871 50.6447 34.4054 50.1342C36.4685 53.6407 40.2824 55.9992 44.6368 55.9992C51.1773 55.9992 56.4985 50.6781 56.4985 44.1376C56.4985 39.783 54.14 35.9692 50.6334 33.9061ZM43.1634 3.61549C43.8171 2.47999 45.4558 2.47846 46.1101 3.61549L54.6274 18.4136C55.2796 19.5466 54.4628 20.9616 53.1541 20.9616H36.1194C34.8123 20.9616 33.9931 19.548 34.6459 18.4136L43.1634 3.61549ZM44.6368 54.3585C39.0009 54.3585 34.4157 49.7734 34.4157 44.1374C34.4157 38.5015 39.0009 33.9163 44.6368 33.9163C50.2727 33.9163 54.8579 38.5015 54.8579 44.1374C54.8579 49.7734 50.2727 54.3585 44.6368 54.3585Z" fill="#6D82EE"/>
</svg>
