<svg width="39" height="40" viewBox="0 0 39 40" fill="none" xmlns="http://www.w3.org/2000/svg">
<rect x="1.5" y="2.375" width="35.25" height="35.25" rx="17.625" fill="white"/>
<rect x="1.5" y="2.375" width="35.25" height="35.25" rx="17.625" stroke="#FF8800" stroke-width="3"/>
<path d="M25.9648 17.7125C25.1773 14.2475 22.1548 12.6875 19.4998 12.6875C19.4998 12.6875 19.4998 12.6875 19.4923 12.6875C16.8448 12.6875 13.8148 14.24 13.0273 17.705C12.1498 21.575 14.5198 24.8525 16.6648 26.915C17.4598 27.68 18.4798 28.0625 19.4998 28.0625C20.5198 28.0625 21.5398 27.68 22.3273 26.915C24.4723 24.8525 26.8423 21.5825 25.9648 17.7125ZM19.4998 21.47C18.1948 21.47 17.1373 20.4125 17.1373 19.1075C17.1373 17.8025 18.1948 16.745 19.4998 16.745C20.8048 16.745 21.8623 17.8025 21.8623 19.1075C21.8623 20.4125 20.8048 21.47 19.4998 21.47Z" fill="#FF8800"/>
</svg>
