<svg width="57" height="56" viewBox="0 0 57 56" fill="none" xmlns="http://www.w3.org/2000/svg">
<path d="M56.1108 28C56.1108 43.1878 43.7987 55.5 28.6108 55.5C13.423 55.5 1.11084 43.1878 1.11084 28C1.11084 12.8122 13.423 0.5 28.6108 0.5C43.7987 0.5 56.1108 12.8122 56.1108 28Z" stroke="#FF8800"/>
<path d="M40.5726 21.1288C39.9053 22.0451 39.0867 22.8263 38.1167 23.4723C38.1263 23.6455 38.131 23.8413 38.131 24.0597C38.131 25.273 37.9394 26.4878 37.5563 27.7041C37.1731 28.9204 36.5877 30.0846 35.8003 31.1967C35.0128 32.3088 34.0748 33.294 32.9862 34.1524C31.8977 35.0107 30.5891 35.6952 29.0607 36.2056C27.5322 36.7161 25.8942 36.9713 24.1464 36.9713C21.4188 36.9713 18.907 36.2914 16.6108 34.9317C17.0184 34.9736 17.4092 34.9945 17.7834 34.9945C20.0621 34.9945 22.0974 34.3465 23.8892 33.0504C22.8267 33.0324 21.8752 32.7305 21.0346 32.1445C20.1941 31.5585 19.6156 30.8098 19.2992 29.8983C19.6119 29.9533 19.9206 29.9808 20.2251 29.9808C20.6635 29.9808 21.0948 29.928 21.5191 29.8224C20.3853 29.6128 19.4447 29.0914 18.6973 28.2582C17.9499 27.4251 17.5762 26.4635 17.5762 25.3734V25.3172C18.2722 25.673 19.0145 25.8623 19.8033 25.885C19.1316 25.4715 18.599 24.9324 18.2056 24.2676C17.8122 23.6027 17.6155 22.8833 17.6155 22.1092C17.6155 21.2928 17.8371 20.5325 18.2802 19.8285C19.5133 21.2255 21.0073 22.3421 22.7625 23.1782C24.5176 24.0143 26.4005 24.4786 28.4113 24.5712C28.3255 24.2412 28.2825 23.8969 28.2824 23.5381C28.2824 22.2856 28.7625 21.2161 29.7226 20.3297C30.6828 19.4432 31.8412 19 33.1978 19C34.6182 19 35.8145 19.4775 36.7869 20.4325C37.8979 20.2293 38.9382 19.8618 39.9077 19.33C39.5342 20.4153 38.8144 21.2526 37.7485 21.8418C38.7282 21.7343 39.6696 21.4966 40.5725 21.1288H40.5726Z" fill="#FF8800"/>
</svg>
