<svg width="20" height="20" viewBox="0 0 20 20" fill="none" xmlns="http://www.w3.org/2000/svg">
<g id="vuesax/bold/user-square">
<g id="user-square">
<g id="Group">
<path id="Vector" d="M13.492 1.6665H6.50866C3.47533 1.6665 1.66699 3.47484 1.66699 6.50817V13.4915C1.66699 15.8332 2.74199 17.4415 4.63366 18.0498C5.18366 18.2415 5.81699 18.3332 6.50866 18.3332H13.492C14.1837 18.3332 14.817 18.2415 15.367 18.0498C17.2587 17.4415 18.3337 15.8332 18.3337 13.4915V6.50817C18.3337 3.47484 16.5253 1.6665 13.492 1.6665ZM17.0837 13.4915C17.0837 15.2748 16.3837 16.3998 14.9753 16.8665C14.167 15.2748 12.2503 14.1415 10.0003 14.1415C7.75033 14.1415 5.84199 15.2665 5.02533 16.8665H5.01699C3.62533 16.4165 2.91699 15.2832 2.91699 13.4998V6.50817C2.91699 4.15817 4.15866 2.9165 6.50866 2.9165H13.492C15.842 2.9165 17.0837 4.15817 17.0837 6.50817V13.4915Z" fill="#FF8800"/>
<path id="Vector_2" d="M9.99993 6.6665C8.34993 6.6665 7.0166 7.99984 7.0166 9.64984C7.0166 11.2998 8.34993 12.6415 9.99993 12.6415C11.6499 12.6415 12.9833 11.2998 12.9833 9.64984C12.9833 7.99984 11.6499 6.6665 9.99993 6.6665Z" fill="#FF8800"/>
</g>
</g>
</g>
</svg>
